<svg width="138" height="28" viewBox="0 0 138 28" fill="none" xmlns="http://www.w3.org/2000/svg">
<path d="M15.2 28L3.72 15.28V28H0.0800003V0.119999H3.72V13.04L15.24 0.119999H19.84L7.2 14.08L19.96 28H15.2ZM38.7053 28L32.0653 16.6H27.6653V28H24.0253V0.119999H33.0253C35.132 0.119999 36.9053 0.479999 38.3453 1.2C39.812 1.92 40.9053 2.89333 41.6253 4.12C42.3453 5.34667 42.7053 6.74667 42.7053 8.32C42.7053 10.24 42.1453 11.9333 41.0253 13.4C39.932 14.8667 38.2786 15.84 36.0653 16.32L43.0653 28H38.7053ZM27.6653 13.68H33.0253C34.9986 13.68 36.4786 13.2 37.4653 12.24C38.452 11.2533 38.9453 9.94667 38.9453 8.32C38.9453 6.66667 38.452 5.38667 37.4653 4.48C36.5053 3.57333 35.0253 3.12 33.0253 3.12H27.6653V13.68ZM52.0013 3.08V12.4H62.1613V15.4H52.0013V25H63.3613V28H48.3613V0.0799994H63.3613V3.08H52.0013ZM86.0291 0.119999V3.08H78.4291V28H74.7891V3.08H67.1491V0.119999H86.0291ZM105.19 28L98.5497 16.6H94.1497V28H90.5097V0.119999H99.5097C101.616 0.119999 103.39 0.479999 104.83 1.2C106.296 1.92 107.39 2.89333 108.11 4.12C108.83 5.34667 109.19 6.74667 109.19 8.32C109.19 10.24 108.63 11.9333 107.51 13.4C106.416 14.8667 104.763 15.84 102.55 16.32L109.55 28H105.19ZM94.1497 13.68H99.5097C101.483 13.68 102.963 13.2 103.95 12.24C104.936 11.2533 105.43 9.94667 105.43 8.32C105.43 6.66667 104.936 5.38667 103.95 4.48C102.99 3.57333 101.51 3.12 99.5097 3.12H94.1497V13.68ZM131.326 21.8H119.166L116.926 28H113.086L123.166 0.279999H127.366L137.406 28H133.566L131.326 21.8ZM130.286 18.84L125.246 4.76L120.206 18.84H130.286Z" fill="url(#paint0_linear_3_12)"/>
<defs>
<linearGradient id="paint0_linear_3_12" x1="-3" y1="14" x2="139" y2="14" gradientUnits="userSpaceOnUse">
<stop stop-color="#C473C8"/>
<stop offset="1" stop-color="#EDAC92"/>
</linearGradient>
</defs>
</svg>
