<svg width="59" height="31" viewBox="0 0 59 31" fill="none" xmlns="http://www.w3.org/2000/svg">
<rect width="59" height="31" rx="5" fill="#6D8B56"/>
<path d="M50.9666 14.425C50.8863 14.1781 50.6729 13.9982 50.4161 13.9609L46.0598 13.328L44.1115 9.38016C43.9966 9.14739 43.7595 9 43.5 9C43.2404 9 43.0033 9.14739 42.8885 9.38016L40.9403 13.3279L36.5839 13.9609C36.327 13.9982 36.1136 14.1781 36.0334 14.425C35.9532 14.6719 36.0201 14.9429 36.206 15.1241L39.3583 18.1965L38.6138 22.5357C38.57 22.7916 38.6751 23.0502 38.8851 23.2027C39.0039 23.2891 39.1446 23.333 39.286 23.333C39.3945 23.333 39.5035 23.3071 39.6033 23.2546L43.4999 21.2062L47.3965 23.2546C47.4969 23.3074 47.6068 23.3326 47.7157 23.333C48.0919 23.3324 48.3967 23.0273 48.3967 22.651C48.3967 22.5987 48.3908 22.5476 48.3796 22.4987L47.6416 18.1966L50.794 15.1241C50.9799 14.9429 51.0468 14.6719 50.9666 14.425Z" fill="black"/>
</svg>
