<svg width="1440" height="650" viewBox="0 0 1440 650" fill="none" xmlns="http://www.w3.org/2000/svg">
<path d="M110.949 225.248L108.535 227.661L110.949 230.075L113.362 227.661L110.949 225.248Z" fill="#B2CDED"/>
<path d="M101.229 215.632L98.9307 217.931L101.229 220.229L103.528 217.931L101.229 215.632Z" fill="#B2CDED"/>
<path d="M91.5656 206.061L89.3821 208.244L91.5656 210.428L93.7491 208.244L91.5656 206.061Z" fill="#B2CDED"/>
<path d="M81.9038 196.505L79.8352 198.573L81.9038 200.642L83.9724 198.573L81.9038 196.505Z" fill="#B2CDED"/>
<path d="M72.181 186.973L70.2273 188.927L72.181 190.88L74.1346 188.927L72.181 186.973Z" fill="#B2CDED"/>
<path d="M62.5197 177.421L60.6809 179.259L62.5197 181.098L64.3584 179.259L62.5197 177.421Z" fill="#B2CDED"/>
<path d="M52.854 167.832L51.1301 169.556L52.854 171.28L54.5778 169.556L52.854 167.832Z" fill="#B2CDED"/>
<path d="M43.1354 158.337L41.584 159.888L43.1354 161.44L44.6869 159.888L43.1354 158.337Z" fill="#B2CDED"/>
<path d="M33.4697 148.747L32.0332 150.183L33.4697 151.62L34.9063 150.183L33.4697 148.747Z" fill="#B2CDED"/>
<path d="M23.8084 139.194L22.4868 140.515L23.8085 141.837L25.1301 140.515L23.8084 139.194Z" fill="#B2CDED"/>
<path d="M14.0851 129.546L12.8784 130.753L14.0851 131.96L15.2918 130.753L14.0851 129.546Z" fill="#B2CDED"/>
<path d="M4.42503 120L3.33325 121.092L4.42501 122.184L5.51679 121.092L4.42503 120Z" fill="#B2CDED"/>
<path d="M103.044 233.087L100.63 235.5L103.044 237.914L105.457 235.5L103.044 233.087Z" fill="#B2CDED"/>
<path d="M93.3812 223.529L91.0828 225.828L93.3812 228.126L95.6797 225.828L93.3812 223.529Z" fill="#B2CDED"/>
<path d="M83.7165 213.945L81.533 216.129L83.7165 218.312L85.9 216.129L83.7165 213.945Z" fill="#B2CDED"/>
<path d="M74.054 204.386L71.9854 206.455L74.054 208.523L76.1226 206.455L74.054 204.386Z" fill="#B2CDED"/>
<path d="M64.3905 194.815L62.4368 196.768L64.3905 198.722L66.3442 196.768L64.3905 194.815Z" fill="#B2CDED"/>
<path d="M54.7272 185.243L52.8884 187.082L54.7272 188.921L56.566 187.082L54.7272 185.243Z" fill="#B2CDED"/>
<path d="M45.0063 175.617L43.2825 177.34L45.0063 179.064L46.7301 177.34L45.0063 175.617Z" fill="#B2CDED"/>
<path d="M35.2848 166.098L33.7334 167.649L35.2849 169.201L36.8363 167.649L35.2848 166.098Z" fill="#B2CDED"/>
<path d="M25.5642 156.586L24.1277 158.023L25.5642 159.459L27.0007 158.023L25.5642 156.586Z" fill="#B2CDED"/>
<path d="M15.9007 147.015L14.5791 148.336L15.9007 149.658L17.2223 148.336L15.9007 147.015Z" fill="#B2CDED"/>
<path d="M6.23743 137.446L5.03076 138.653L6.23743 139.86L7.4441 138.653L6.23743 137.446Z" fill="#B2CDED"/>
<path d="M95.2529 240.926L92.8396 243.34L95.253 245.753L97.6663 243.34L95.2529 240.926Z" fill="#B2CDED"/>
<path d="M85.5892 231.354L83.2908 233.653L85.5892 235.951L87.8877 233.653L85.5892 231.354Z" fill="#B2CDED"/>
<path d="M75.9257 221.782L73.7422 223.966L75.9257 226.149L78.1093 223.966L75.9257 221.782Z" fill="#B2CDED"/>
<path d="M66.1472 212.21L64.0786 214.279L66.1472 216.347L68.2158 214.279L66.1472 212.21Z" fill="#B2CDED"/>
<path d="M56.4837 202.638L54.53 204.592L56.4837 206.545L58.4374 204.592L56.4837 202.638Z" fill="#B2CDED"/>
<path d="M46.8202 193.066L44.9814 194.905L46.8202 196.743L48.659 194.905L46.8202 193.066Z" fill="#B2CDED"/>
<path d="M37.1565 183.493L35.4326 185.217L37.1565 186.941L38.8803 185.217L37.1565 183.493Z" fill="#B2CDED"/>
<path d="M27.4355 173.978L25.884 175.53L27.4355 177.081L28.9869 175.53L27.4355 173.978Z" fill="#B2CDED"/>
<path d="M17.7737 164.425L16.3372 165.862L17.7737 167.298L19.2102 165.862L17.7737 164.425Z" fill="#B2CDED"/>
<path d="M8.10801 154.833L6.78638 156.154L8.10798 157.476L9.42961 156.154L8.10801 154.833Z" fill="#B2CDED"/>
<path d="M87.3497 248.792L84.9363 251.206L87.3497 253.619L89.763 251.206L87.3497 248.792Z" fill="#B2CDED"/>
<path d="M77.6861 239.222L75.3877 241.52L77.6861 243.818L79.9846 241.52L77.6861 239.222Z" fill="#B2CDED"/>
<path d="M68.0217 229.636L65.8381 231.82L68.0217 234.003L70.2052 231.82L68.0217 229.636Z" fill="#B2CDED"/>
<path d="M58.3591 220.077L56.2905 222.146L58.3591 224.215L60.4277 222.146L58.3591 220.077Z" fill="#B2CDED"/>
<path d="M48.6947 210.493L46.741 212.447L48.6947 214.4L50.6484 212.447L48.6947 210.493Z" fill="#B2CDED"/>
<path d="M39.0326 200.938L37.1938 202.777L39.0326 204.616L40.8714 202.777L39.0326 200.938Z" fill="#B2CDED"/>
<path d="M29.3679 191.35L27.644 193.074L29.3679 194.798L31.0917 193.074L29.3679 191.35Z" fill="#B2CDED"/>
<path d="M19.5908 181.912L18.0393 183.464L19.5908 185.015L21.1422 183.464L19.5908 181.912Z" fill="#B2CDED"/>
<path d="M9.86817 172.262L8.43164 173.698L9.86817 175.135L11.3047 173.698L9.86817 172.262Z" fill="#B2CDED"/>
<path d="M0.2049 162.693L-1.1167 164.015L0.2049 165.336L1.5265 164.015L0.2049 162.693Z" fill="#B2CDED"/>
<path d="M79.5586 256.632L77.1453 259.045L79.5586 261.459L81.972 259.045L79.5586 256.632Z" fill="#B2CDED"/>
<path d="M69.8954 247.061L67.5969 249.359L69.8954 251.658L72.1938 249.359L69.8954 247.061Z" fill="#B2CDED"/>
<path d="M60.1738 237.533L57.9902 239.716L60.1738 241.9L62.3573 239.716L60.1738 237.533Z" fill="#B2CDED"/>
<path d="M50.511 227.976L48.4424 230.045L50.511 232.114L52.5796 230.045L50.511 227.976Z" fill="#B2CDED"/>
<path d="M40.7891 218.332L38.8354 220.286L40.7891 222.24L42.7428 220.286L40.7891 218.332Z" fill="#B2CDED"/>
<path d="M31.1266 208.78L29.2878 210.618L31.1266 212.457L32.9653 210.618L31.1266 208.78Z" fill="#B2CDED"/>
<path d="M21.4619 199.187L19.738 200.911L21.4619 202.635L23.1857 200.911L21.4619 199.187Z" fill="#B2CDED"/>
<path d="M11.7421 189.694L10.1907 191.245L11.7421 192.797L13.2936 191.245L11.7421 189.694Z" fill="#B2CDED"/>
<path d="M2.07764 180.104L0.641113 181.54L2.07764 182.977L3.51417 181.54L2.07764 180.104Z" fill="#B2CDED"/>
<path d="M71.6526 264.458L69.2393 266.871L71.6526 269.284L74.066 266.871L71.6526 264.458Z" fill="#B2CDED"/>
<path d="M61.9891 254.886L59.6907 257.185L61.9891 259.483L64.2876 257.185L61.9891 254.886Z" fill="#B2CDED"/>
<path d="M52.3261 245.329L50.1426 247.513L52.3261 249.696L54.5096 247.513L52.3261 245.329Z" fill="#B2CDED"/>
<path d="M42.6628 235.758L40.5942 237.827L42.6628 239.895L44.7314 237.827L42.6628 235.758Z" fill="#B2CDED"/>
<path d="M32.9991 226.185L31.0454 228.139L32.9991 230.093L34.9527 228.139L32.9991 226.185Z" fill="#B2CDED"/>
<path d="M23.3358 216.617L21.4971 218.455L23.3358 220.294L25.1746 218.455L23.3358 216.617Z" fill="#B2CDED"/>
<path d="M13.6142 207.086L11.8904 208.81L13.6142 210.534L15.338 208.81L13.6142 207.086Z" fill="#B2CDED"/>
<path d="M3.89399 197.591L2.34253 199.142L3.89399 200.693L5.44545 199.142L3.89399 197.591Z" fill="#B2CDED"/>
<path d="M63.8616 272.283L61.4482 274.697L63.8616 277.11L66.275 274.697L63.8616 272.283Z" fill="#B2CDED"/>
<path d="M54.141 262.783L51.8425 265.081L54.141 267.38L56.4394 265.081L54.141 262.783Z" fill="#B2CDED"/>
<path d="M44.4773 253.199L42.2937 255.382L44.4772 257.566L46.6608 255.382L44.4773 253.199Z" fill="#B2CDED"/>
<path d="M34.814 243.64L32.7454 245.708L34.8139 247.777L36.8826 245.708L34.814 243.64Z" fill="#B2CDED"/>
<path d="M25.15 234.052L23.1963 236.006L25.15 237.96L27.1037 236.006L25.15 234.052Z" fill="#B2CDED"/>
<path d="M15.4298 224.456L13.5911 226.295L15.4298 228.133L17.2686 226.295L15.4298 224.456Z" fill="#B2CDED"/>
<path d="M5.76607 214.87L4.04224 216.594L5.76607 218.318L7.48991 216.594L5.76607 214.87Z" fill="#B2CDED"/>
<path d="M56.0137 280.18L53.6003 282.593L56.0137 285.007L58.4271 282.593L56.0137 280.18Z" fill="#B2CDED"/>
<path d="M46.3504 270.622L44.052 272.92L46.3504 275.219L48.6489 272.92L46.3504 270.622Z" fill="#B2CDED"/>
<path d="M36.6293 260.978L34.4458 263.162L36.6293 265.346L38.8128 263.162L36.6293 260.978Z" fill="#B2CDED"/>
<path d="M26.9658 251.422L24.8972 253.49L26.9658 255.559L29.0344 253.49L26.9658 251.422Z" fill="#B2CDED"/>
<path d="M17.2447 241.892L15.291 243.845L17.2447 245.799L19.1984 243.845L17.2447 241.892Z" fill="#B2CDED"/>
<path d="M7.58144 232.336L5.74268 234.175L7.5814 236.014L9.42017 234.175L7.58144 232.336Z" fill="#B2CDED"/>
<path d="M48.1084 288.019L45.6951 290.432L48.1084 292.846L50.5218 290.432L48.1084 288.019Z" fill="#B2CDED"/>
<path d="M38.4449 278.447L36.1465 280.746L38.4449 283.044L40.7434 280.746L38.4449 278.447Z" fill="#B2CDED"/>
<path d="M28.7814 268.875L26.5979 271.059L28.7814 273.242L30.9649 271.059L28.7814 268.875Z" fill="#B2CDED"/>
<path d="M19.1179 259.303L17.0493 261.372L19.1179 263.44L21.1865 261.372L19.1179 259.303Z" fill="#B2CDED"/>
<path d="M9.45439 249.731L7.50073 251.685L9.45439 253.638L11.408 251.685L9.45439 249.731Z" fill="#B2CDED"/>
<path d="M-0.209367 240.159L-2.0481 241.997L-0.209332 243.836L1.6294 241.997L-0.209367 240.159Z" fill="#B2CDED"/>
<path d="M40.3174 295.899L37.9041 298.312L40.3174 300.726L42.7308 298.312L40.3174 295.899Z" fill="#B2CDED"/>
<path d="M30.6539 286.314L28.3555 288.613L30.6539 290.911L32.9524 288.613L30.6539 286.314Z" fill="#B2CDED"/>
<path d="M20.9904 276.743L18.8069 278.927L20.9904 281.11L23.1739 278.927L20.9904 276.743Z" fill="#B2CDED"/>
<path d="M11.2122 267.172L9.14355 269.241L11.2122 271.31L13.2808 269.241L11.2122 267.172Z" fill="#B2CDED"/>
<path d="M1.54891 257.586L-0.404785 259.54L1.54891 261.493L3.5026 259.54L1.54891 257.586Z" fill="#B2CDED"/>
<path d="M32.4124 303.711L29.999 306.124L32.4124 308.538L34.8257 306.124L32.4124 303.711Z" fill="#B2CDED"/>
<path d="M22.7489 294.14L20.4504 296.438L22.7489 298.736L25.0473 296.438L22.7489 294.14Z" fill="#B2CDED"/>
<path d="M13.0854 284.568L10.9019 286.752L13.0854 288.935L15.2689 286.752L13.0854 284.568Z" fill="#B2CDED"/>
<path d="M3.42137 275.012L1.35278 277.08L3.42137 279.149L5.48996 277.08L3.42137 275.012Z" fill="#B2CDED"/>
<path d="M24.6216 311.55L22.2083 313.964L24.6216 316.377L27.035 313.964L24.6216 311.55Z" fill="#B2CDED"/>
<path d="M14.9581 301.979L12.6597 304.277L14.9581 306.576L17.2566 304.277L14.9581 301.979Z" fill="#B2CDED"/>
<path d="M5.23698 292.465L3.05347 294.648L5.23698 296.832L7.4205 294.648L5.23698 292.465Z" fill="#B2CDED"/>
<path d="M-44.8262 441.917L-31.9323 598.219C-29.1837 599.82 -26.4022 601.132 -23.5082 602.43L-37.3154 435.792C-39.8862 437.709 -42.4477 439.739 -44.8262 441.917Z" stroke="#3F9DFF" stroke-width="2" stroke-miterlimit="10"/>
<path d="M-37.3153 435.792L-23.508 602.43C-20.7359 603.629 -18.0341 604.666 -15.2291 605.575L-29.6686 430.62C-32.3191 432.261 -34.7961 433.938 -37.3153 435.792Z" stroke="#3F9DFF" stroke-width="2" stroke-miterlimit="10"/>
<path d="M1.43748 418.263L17.3337 610.112C20.0543 610.004 22.6531 609.797 25.3034 609.526L9.40264 416.935C6.70069 417.269 4.06908 417.766 1.43748 418.263Z" stroke="#3F9DFF" stroke-width="2" stroke-miterlimit="10"/>
<path d="M-6.41048 420.319L9.3077 610.02C11.9345 610.152 14.6646 610.157 17.3853 610.049L1.43751 418.263C-1.24571 418.824 -3.85858 419.547 -6.41048 420.319Z" stroke="#3F9DFF" stroke-width="2" stroke-miterlimit="10"/>
<path d="M-21.9988 426.416L-6.96447 607.865C-4.23919 608.498 -1.53264 608.906 1.1739 609.313L-14.2633 423.004C-16.909 424.016 -19.4844 425.191 -21.9988 426.416Z" stroke="#3F9DFF" stroke-width="2" stroke-miterlimit="10"/>
<path d="M-14.2631 423.004L1.17402 609.313C3.81959 609.671 6.56838 609.902 9.3078 610.02L-6.41038 420.319C-9.07487 421.106 -11.6784 421.942 -14.2631 423.004Z" stroke="#3F9DFF" stroke-width="2" stroke-miterlimit="10"/>
<path d="M-29.6687 430.62L-15.2292 605.575C-12.4852 606.435 -9.75058 607.181 -7.02529 607.815L-21.9987 426.416C-24.6257 427.655 -27.234 429.12 -29.6687 430.62Z" stroke="#3F9DFF" stroke-width="2" stroke-miterlimit="10"/>
<path d="M-52.2856 449.35L-40.3986 592.813C-37.6735 594.818 -34.7936 596.631 -31.8714 598.268L-44.8262 441.917C-47.4206 444.237 -49.8835 446.769 -52.2856 449.35Z" stroke="#3F9DFF" stroke-width="2" stroke-miterlimit="10"/>
<path d="M-55.8135 453.441C-57.1037 455.029 -58.3845 456.729 -59.5527 458.415L-49.0053 585.712C-47.5841 587.078 -46.1114 588.381 -44.526 589.669C-43.1846 590.76 -41.7916 591.786 -40.3985 592.813L-52.2855 449.35C-53.4818 450.697 -54.6782 452.045 -55.8135 453.441Z" stroke="#3F9DFF" stroke-width="2" stroke-miterlimit="10"/>
<path d="M-66.6843 469.805L-57.8604 576.3C-55.1965 579.625 -52.2651 582.746 -49.0663 585.662L-59.5528 458.415C-62.2083 462.056 -64.6199 465.895 -66.6843 469.805Z" stroke="#3F9DFF" stroke-width="2" stroke-miterlimit="10"/>
<path d="M66.5402 427.741L79.5606 584.883C82.1549 582.564 84.6273 580.145 87.0293 577.563L75.0674 433.196C72.2813 431.142 69.4623 429.378 66.5402 427.741Z" stroke="#3F9DFF" stroke-width="2" stroke-miterlimit="10"/>
<path d="M79.7953 436.723C78.2709 435.484 76.634 434.258 75.0064 433.146L86.9684 577.514C88.3805 576.026 89.7316 574.488 91.0734 572.837C92.2088 571.441 93.2315 570.058 94.3059 568.611L83.646 439.958C82.3656 438.917 81.0758 437.763 79.7953 436.723Z" stroke="#3F9DFF" stroke-width="2" stroke-miterlimit="10"/>
<path d="M83.6555 440.071L94.306 568.611C96.9614 564.971 99.2698 561.259 101.395 557.398L92.4308 449.208C89.7762 445.995 86.7933 442.938 83.6555 440.071Z" stroke="#3F9DFF" stroke-width="2" stroke-miterlimit="10"/>
<path d="M92.4917 449.257L101.395 557.398C104.112 552.437 106.369 547.418 108.157 542.228L101.543 462.414C98.9498 457.881 95.9061 453.403 92.4917 449.257Z" stroke="#3F9DFF" stroke-width="2" stroke-miterlimit="10"/>
<path d="M101.604 462.463L108.218 542.278C117.551 515.597 115.125 486.317 101.604 462.463Z" stroke="#3F9DFF" stroke-width="2" stroke-miterlimit="10"/>
<path d="M58.1255 423.642L71.9889 590.959C74.5598 589.042 77.1212 587.012 79.5607 584.883L66.5496 427.854C63.801 426.252 61.0102 424.827 58.1255 423.642Z" stroke="#3F9DFF" stroke-width="2" stroke-miterlimit="10"/>
<path d="M25.3797 416.215L41.1167 606.142C43.7811 605.356 46.3847 604.52 48.9178 603.521L33.4526 416.872C30.8163 416.627 28.0676 416.396 25.3797 416.215Z" stroke="#3F9DFF" stroke-width="2" stroke-miterlimit="10"/>
<path d="M17.3634 416.236L33.2079 608.149C35.8911 607.588 38.4524 606.929 41.0653 606.206L25.3284 416.279C22.7015 416.147 20.0324 416.191 17.3634 416.236Z" stroke="#3F9DFF" stroke-width="2" stroke-miterlimit="10"/>
<path d="M49.9076 420.547L64.4455 596.004C67.0444 594.426 69.5823 592.799 72.1016 590.945L58.2381 423.628C55.4144 422.493 52.6516 421.407 49.9076 420.547Z" stroke="#3F9DFF" stroke-width="2" stroke-miterlimit="10"/>
<path d="M9.40263 416.935L25.355 609.463C28.057 609.129 30.637 608.695 33.3202 608.135L17.363 416.236C14.7033 416.394 11.992 416.615 9.40263 416.935Z" stroke="#3F9DFF" stroke-width="2" stroke-miterlimit="10"/>
<path d="M41.6518 418.371L56.7143 600.158C59.3413 598.92 61.898 597.518 64.3843 595.955L49.8464 420.498C47.1634 419.688 44.4287 418.941 41.6518 418.371Z" stroke="#3F9DFF" stroke-width="2" stroke-miterlimit="10"/>
<path d="M33.5135 416.922L48.9788 603.571C51.6245 602.558 54.1483 601.447 56.7753 600.208L41.7035 418.307C38.9266 417.737 36.2201 417.329 33.5135 416.922Z" stroke="#3F9DFF" stroke-width="2" stroke-miterlimit="10"/>
<path d="M343.93 209.7L343.167 201.249L330.696 202.303L329.578 189.908L321.05 190.607L322.104 203.078L309.709 204.196L310.484 212.788L322.943 211.593L324.074 224.129L332.589 223.29L331.471 210.895L343.93 209.7Z" fill="#FDFDFD"/>
<path d="M308.497 252.158L307.799 243.63L295.263 244.761L294.209 232.289L285.618 233.064L286.736 245.459L274.277 246.653L275.116 255.169L287.51 254.051L288.705 266.509L297.156 265.747L296.102 253.276L308.497 252.158Z" fill="#0070E4"/>
<path d="M273.129 294.538L272.367 286.087L259.895 287.141L258.777 274.747L250.249 275.445L251.303 287.916L238.908 289.034L239.683 297.626L252.078 296.508L253.273 308.967L261.788 308.128L260.67 295.733L273.129 294.538Z" fill="#FDFDFD"/>
<path d="M707.545 74.0183L688 62.7688V85.2679L707.545 74.0183Z" fill="#FDFDFD"/>
<path d="M740.157 74.0183L720.612 62.7688V85.2679L740.157 74.0183Z" fill="#FDFDFD"/>
<path d="M772.769 74.0183L753.338 62.7688V85.2679L772.769 74.0183Z" fill="#0070E4"/>
<path d="M724.888 3.34744L721.674 6.5614L724.888 9.77536L728.102 6.5614L724.888 3.34744Z" fill="#8F9294"/>
<path d="M738.479 17.1294L735.426 20.1827L738.479 23.2359L741.533 20.1827L738.479 17.1294Z" fill="#8F9294"/>
<path d="M752.072 30.7537L749.179 33.6462L752.072 36.5388L754.965 33.6463L752.072 30.7537Z" fill="#8F9294"/>
<path d="M765.584 44.458L762.853 47.1899L765.584 49.9218L768.316 47.1899L765.584 44.458Z" fill="#8F9294"/>
<path d="M779.182 58.2536L776.611 60.8248L779.182 63.396L781.753 60.8248L779.182 58.2536Z" fill="#8F9294"/>
<path d="M792.775 71.8787L790.365 74.2892L792.775 76.6997L795.186 74.2892L792.775 71.8787Z" fill="#8F9294"/>
<path d="M806.208 85.6644L804.038 87.8339L806.208 90.0033L808.377 87.8339L806.208 85.6644Z" fill="#8F9294"/>
<path d="M819.72 99.3698L817.711 101.379L819.72 103.387L821.729 101.379L819.72 99.3698Z" fill="#8F9294"/>
<path d="M833.313 113.156L831.465 115.004L833.313 116.852L835.161 115.004L833.313 113.156Z" fill="#8F9294"/>
<path d="M846.906 126.781L845.219 128.468L846.906 130.155L848.593 128.468L846.906 126.781Z" fill="#8F9294"/>
<path d="M860.419 140.486L858.892 142.013L860.419 143.539L861.946 142.013L860.419 140.486Z" fill="#8F9294"/>
<path d="M749.457 6.09461L746.404 9.14789L749.457 12.2012L752.51 9.14788L749.457 6.09461Z" fill="#8F9294"/>
<path d="M762.97 19.8008L760.077 22.6934L762.97 25.5859L765.863 22.6934L762.97 19.8008Z" fill="#8F9294"/>
<path d="M776.643 33.5055L773.911 36.2374L776.643 38.9693L779.375 36.2374L776.643 33.5055Z" fill="#8F9294"/>
<path d="M790.156 47.2117L787.585 49.7829L790.156 52.354L792.727 49.7829L790.156 47.2117Z" fill="#8F9294"/>
<path d="M803.669 60.917L801.258 63.3274L803.669 65.7379L806.079 63.3274L803.669 60.917Z" fill="#8F9294"/>
<path d="M817.181 74.7831L815.012 76.9526L817.181 79.122L819.351 76.9526L817.181 74.7831Z" fill="#8F9294"/>
<path d="M830.768 88.3927L828.759 90.4015L830.768 92.4102L832.777 90.4015L830.768 88.3927Z" fill="#8F9294"/>
<path d="M844.287 102.114L842.439 103.962L844.287 105.81L846.135 103.962L844.287 102.114Z" fill="#8F9294"/>
<path d="M857.792 115.799L856.104 117.486L857.792 119.174L859.479 117.486L857.792 115.799Z" fill="#8F9294"/>
<path d="M871.473 129.524L869.947 131.051L871.473 132.578L873 131.051L871.473 129.524Z" fill="#8F9294"/>
<path d="M760.512 -4.86716L757.458 -1.8139L760.512 1.23936L763.565 -1.8139L760.512 -4.86716Z" fill="#8F9294"/>
<path d="M774.022 8.83381L771.129 11.7264L774.022 14.6189L776.914 11.7264L774.022 8.83381Z" fill="#8F9294"/>
<path d="M787.537 22.5445L784.805 25.2764L787.537 28.0083L790.269 25.2764L787.537 22.5445Z" fill="#8F9294"/>
<path d="M801.05 36.2498L798.479 38.821L801.05 41.3921L803.621 38.821L801.05 36.2498Z" fill="#8F9294"/>
<path d="M814.723 49.9553L812.313 52.3657L814.723 54.7762L817.134 52.3657L814.723 49.9553Z" fill="#8F9294"/>
<path d="M828.155 63.7409L825.986 65.9103L828.156 68.0797L830.325 65.9103L828.155 63.7409Z" fill="#8F9294"/>
<path d="M841.668 77.4464L839.66 79.4551L841.668 81.4638L843.677 79.4551L841.668 77.4464Z" fill="#8F9294"/>
<path d="M855.261 91.0714L853.413 92.9194L855.261 94.7675L857.109 92.9194L855.261 91.0714Z" fill="#8F9294"/>
<path d="M868.846 104.837L867.159 106.525L868.846 108.212L870.533 106.525L868.846 104.837Z" fill="#8F9294"/>
<path d="M882.367 118.563L880.84 120.089L882.367 121.616L883.894 120.089L882.367 118.563Z" fill="#8F9294"/>
<path d="M784.917 -2.12444L782.025 0.768127L784.917 3.6607L787.81 0.768127L784.917 -2.12444Z" fill="#8F9294"/>
<path d="M798.591 11.5808L795.859 14.3126L798.591 17.0445L801.322 14.3126L798.591 11.5808Z" fill="#8F9294"/>
<path d="M812.104 25.2871L809.533 27.8583L812.104 30.4294L814.675 27.8583L812.104 25.2871Z" fill="#8F9294"/>
<path d="M825.617 38.9936L823.207 41.404L825.617 43.8145L828.028 41.404L825.617 38.9936Z" fill="#8F9294"/>
<path d="M839.13 52.6988L836.96 54.8683L839.13 57.0377L841.299 54.8682L839.13 52.6988Z" fill="#8F9294"/>
<path d="M852.723 66.4847L850.714 68.4934L852.723 70.5021L854.732 68.4934L852.723 66.4847Z" fill="#8F9294"/>
<path d="M866.234 80.1884L864.386 82.0364L866.235 83.8844L868.083 82.0364L866.234 80.1884Z" fill="#8F9294"/>
<path d="M879.757 93.9153L878.07 95.6027L879.757 97.29L881.445 95.6026L879.757 93.9153Z" fill="#8F9294"/>
<path d="M893.342 107.523L891.815 109.049L893.342 110.576L894.869 109.05L893.342 107.523Z" fill="#8F9294"/>
<path d="M809.487 0.624069L806.755 3.35596L809.487 6.08783L812.219 3.35594L809.487 0.624069Z" fill="#8F9294"/>
<path d="M823.085 14.2569L820.514 16.8281L823.085 19.3993L825.656 16.8281L823.085 14.2569Z" fill="#8F9294"/>
<path d="M836.678 28.0439L834.268 30.4544L836.678 32.8649L839.089 30.4544L836.678 28.0439Z" fill="#8F9294"/>
<path d="M850.104 41.8175L847.935 43.9869L850.104 46.1563L852.273 43.9869L850.104 41.8175Z" fill="#8F9294"/>
<path d="M863.624 55.5382L861.616 57.5469L863.624 59.5557L865.633 57.5469L863.624 55.5382Z" fill="#8F9294"/>
<path d="M877.21 69.148L875.362 70.996L877.21 72.844L879.058 70.996L877.21 69.148Z" fill="#8F9294"/>
<path d="M890.812 82.9536L889.125 84.6409L890.812 86.3282L892.499 84.6409L890.812 82.9536Z" fill="#8F9294"/>
<path d="M904.315 96.639L902.789 98.1656L904.315 99.6923L905.842 98.1656L904.315 96.639Z" fill="#8F9294"/>
<path d="M834.059 3.37602L831.488 5.9472L834.059 8.51837L836.631 5.94719L834.059 3.37602Z" fill="#8F9294"/>
<path d="M847.566 17.07L845.155 19.4805L847.566 21.8909L849.976 19.4805L847.566 17.07Z" fill="#8F9294"/>
<path d="M861.086 30.789L858.916 32.9584L861.086 35.1279L863.255 32.9584L861.086 30.789Z" fill="#8F9294"/>
<path d="M874.591 44.4808L872.582 46.4895L874.591 48.4982L876.599 46.4895L874.591 44.4808Z" fill="#8F9294"/>
<path d="M888.184 58.2665L886.336 60.1145L888.184 61.9626L890.032 60.1145L888.184 58.2665Z" fill="#8F9294"/>
<path d="M901.777 71.8915L900.089 73.5789L901.777 75.2662L903.464 73.5789L901.777 71.8915Z" fill="#8F9294"/>
<path d="M915.29 85.5969L913.763 87.1235L915.29 88.6502L916.816 87.1236L915.29 85.5969Z" fill="#8F9294"/>
<path d="M858.539 6.02666L856.128 8.43713L858.539 10.8476L860.949 8.43713L858.539 6.02666Z" fill="#8F9294"/>
<path d="M872.052 19.894L869.883 22.0634L872.052 24.2329L874.221 22.0634L872.052 19.894Z" fill="#8F9294"/>
<path d="M885.644 33.5175L883.635 35.5262L885.644 37.5349L887.653 35.5262L885.644 33.5175Z" fill="#8F9294"/>
<path d="M899.158 47.2244L897.31 49.0724L899.158 50.9205L901.006 49.0725L899.158 47.2244Z" fill="#8F9294"/>
<path d="M912.671 60.9298L910.983 62.6172L912.67 64.3045L914.358 62.6171L912.671 60.9298Z" fill="#8F9294"/>
<path d="M926.263 74.7155L924.737 76.2422L926.263 77.7688L927.79 76.2422L926.263 74.7155Z" fill="#8F9294"/>
<path d="M883.02 8.84233L880.851 11.0117L883.02 13.1811L885.19 11.0118L883.02 8.84233Z" fill="#8F9294"/>
<path d="M896.539 22.5572L894.53 24.5659L896.539 26.5747L898.548 24.5659L896.539 22.5572Z" fill="#8F9294"/>
<path d="M910.132 36.343L908.284 38.191L910.132 40.0391L911.98 38.1911L910.132 36.343Z" fill="#8F9294"/>
<path d="M923.725 49.9681L922.038 51.6554L923.725 53.3427L925.412 51.6554L923.725 49.9681Z" fill="#8F9294"/>
<path d="M937.238 63.6734L935.711 65.2001L937.238 66.7267L938.764 65.2L937.238 63.6734Z" fill="#8F9294"/>
<path d="M893.914 -2.11945L891.744 0.0499878L893.914 2.21941L896.083 0.0499757L893.914 -2.11945Z" fill="#8F9294"/>
<path d="M907.591 11.5924L905.583 13.6011L907.591 15.6099L909.6 13.6011L907.591 11.5924Z" fill="#8F9294"/>
<path d="M921.105 25.2989L919.257 27.147L921.105 28.995L922.953 27.1469L921.105 25.2989Z" fill="#8F9294"/>
<path d="M934.619 39.0063L932.932 40.6936L934.619 42.381L936.306 40.6936L934.619 39.0063Z" fill="#8F9294"/>
<path d="M948.292 52.7117L946.766 54.2383L948.292 55.7649L949.819 54.2383L948.292 52.7117Z" fill="#8F9294"/>
<path d="M918.488 0.635072L916.479 2.6438L918.488 4.65253L920.497 2.6438L918.488 0.635072Z" fill="#8F9294"/>
<path d="M932.079 14.2571L930.231 16.1051L932.079 17.9531L933.927 16.1051L932.079 14.2571Z" fill="#8F9294"/>
<path d="M945.673 28.0445L943.986 29.7319L945.673 31.4192L947.361 29.7318L945.673 28.0445Z" fill="#8F9294"/>
<path d="M959.172 41.7269L957.646 43.2536L959.172 44.7802L960.699 43.2536L959.172 41.7269Z" fill="#8F9294"/>
<path d="M943.054 3.3772L941.206 5.22522L943.054 7.07324L944.902 5.22523L943.054 3.3772Z" fill="#8F9294"/>
<path d="M956.579 17.1027L954.892 18.79L956.579 20.4774L958.267 18.7901L956.579 17.1027Z" fill="#8F9294"/>
<path d="M970.16 30.7078L968.633 32.2345L970.16 33.7611L971.687 32.2344L970.16 30.7078Z" fill="#8F9294"/>
<path d="M967.628 6.131L965.94 7.81836L967.628 9.50569L969.315 7.81833L967.628 6.131Z" fill="#8F9294"/>
<path d="M981.149 19.8494L979.622 21.376L981.149 22.9027L982.675 21.376L981.149 19.8494Z" fill="#8F9294"/>
<path d="M1328.59 505.039L1325.48 508.151L1328.59 511.264L1331.71 508.151L1328.59 505.039Z" stroke="#A9C6EA" stroke-width="1.0782" stroke-miterlimit="10"/>
<path d="M1352.25 481.384L1349.14 484.497L1352.25 487.609L1355.36 484.497L1352.25 481.384Z" stroke="#A9C6EA" stroke-width="1.0782" stroke-miterlimit="10"/>
<path d="M1375.82 457.808L1372.71 460.92L1375.82 464.033L1378.94 460.92L1375.82 457.808Z" stroke="#A9C6EA" stroke-width="1.0782" stroke-miterlimit="10"/>
<path d="M1399.4 434.231L1396.29 437.344L1399.4 440.456L1402.51 437.344L1399.4 434.231Z" stroke="#A9C6EA" stroke-width="1.0782" stroke-miterlimit="10"/>
<path d="M1423.06 410.577L1419.94 413.689L1423.06 416.802L1426.17 413.689L1423.06 410.577Z" stroke="#A9C6EA" stroke-width="1.0782" stroke-miterlimit="10"/>
<path d="M1345.87 522.313L1342.76 525.425L1345.87 528.538L1348.98 525.425L1345.87 522.313Z" stroke="#A9C6EA" stroke-width="1.0782" stroke-miterlimit="10"/>
<path d="M1369.52 498.658L1366.41 501.771L1369.52 504.883L1372.63 501.771L1369.52 498.658Z" stroke="#E4ECF9" stroke-width="1.0782" stroke-miterlimit="10"/>
<path d="M1393.1 475.082L1389.99 478.194L1393.1 481.307L1396.21 478.194L1393.1 475.082Z" stroke="#A9C6EA" stroke-width="1.0782" stroke-miterlimit="10"/>
<path d="M1416.68 451.505L1413.56 454.618L1416.68 457.73L1419.79 454.618L1416.68 451.505Z" stroke="#A9C6EA" stroke-width="1.0782" stroke-miterlimit="10"/>
<path d="M1440.33 427.851L1437.22 430.963L1440.33 434.076L1443.44 430.963L1440.33 427.851Z" stroke="#A9C6EA" stroke-width="1.0782" stroke-miterlimit="10"/>
<path d="M1363.06 539.509L1359.95 542.621L1363.06 545.734L1366.18 542.621L1363.06 539.509Z" stroke="#A9C6EA" stroke-width="1.0782" stroke-miterlimit="10"/>
<path d="M1386.72 515.855L1383.61 518.967L1386.72 522.079L1389.83 518.967L1386.72 515.855Z" stroke="#A9C6EA" stroke-width="1.0782" stroke-miterlimit="10"/>
<path d="M1410.3 492.278L1407.18 495.39L1410.3 498.503L1413.41 495.39L1410.3 492.278Z" stroke="#A9C6EA" stroke-width="1.0782" stroke-miterlimit="10"/>
<path d="M1433.87 468.701L1430.76 471.814L1433.87 474.926L1436.98 471.814L1433.87 468.701Z" stroke="#E4ECF9" stroke-width="1.0782" stroke-miterlimit="10"/>
<path d="M1380.26 556.705L1377.15 559.818L1380.26 562.93L1383.37 559.818L1380.26 556.705Z" stroke="#A9C6EA" stroke-width="1.0782" stroke-miterlimit="10"/>
<path d="M1403.92 533.051L1400.8 536.163L1403.92 539.276L1407.03 536.163L1403.92 533.051Z" stroke="#A9C6EA" stroke-width="1.0782" stroke-miterlimit="10"/>
<path d="M1427.49 509.474L1424.38 512.587L1427.49 515.699L1430.6 512.587L1427.49 509.474Z" stroke="#A9C6EA" stroke-width="1.0782" stroke-miterlimit="10"/>
<path d="M1397.46 573.901L1394.34 577.014L1397.46 580.126L1400.57 577.014L1397.46 573.901Z" stroke="#A9C6EA" stroke-width="1.0782" stroke-miterlimit="10"/>
<path d="M1421.11 550.247L1418 553.359L1421.11 556.472L1424.22 553.359L1421.11 550.247Z" fill="#3F9DFF"/>
<path d="M1414.65 591.098L1411.54 594.21L1414.65 597.322L1417.76 594.21L1414.65 591.098Z" stroke="#A9C6EA" stroke-width="1.0782" stroke-miterlimit="10"/>
<path d="M1438.31 567.443L1435.19 570.556L1438.31 573.668L1441.42 570.556L1438.31 567.443Z" stroke="#A9C6EA" stroke-width="1.0782" stroke-miterlimit="10"/>
<path d="M1431.85 608.294L1428.74 611.406L1431.85 614.519L1434.96 611.406L1431.85 608.294Z" stroke="#A9C6EA" stroke-width="1.0782" stroke-miterlimit="10"/>
<path d="M1325 415.38C1290.77 415.38 1263 443.335 1263 477.88C1263 512.426 1290.73 540.38 1325 540.38C1359.23 540.38 1387 512.426 1387 477.88C1387 443.335 1359.23 415.38 1325 415.38ZM1325 527.863C1297.62 527.863 1275.42 505.481 1275.42 477.88C1275.42 450.28 1297.62 427.898 1325 427.898C1352.38 427.898 1374.58 450.28 1374.58 477.88C1374.58 505.481 1352.38 527.863 1325 527.863Z" fill="#B2CDED"/>
<path d="M535.674 98.213L359.614 -86.4829C353.634 -92.7526 353.634 -103.028 359.614 -109.298C365.593 -115.567 375.393 -115.567 381.372 -109.298L557.515 75.3981C563.495 81.6679 563.495 91.9433 557.515 98.213C551.453 104.483 541.736 104.483 535.674 98.213Z" stroke="#0070E4" stroke-width="2" stroke-miterlimit="10"/>
<path d="M436.183 57.5686L301.73 -83.4133C297.162 -88.2027 297.162 -96.0399 301.73 -100.829C306.297 -105.619 313.772 -105.619 318.339 -100.829L452.793 40.1527C457.36 44.942 457.36 52.7792 452.793 57.5686C448.225 62.358 440.751 62.358 436.183 57.5686Z" stroke="#0070E4" stroke-width="2" stroke-miterlimit="10"/>
<path d="M420.404 111.558L285.951 -29.4239C281.383 -34.2133 281.383 -42.0505 285.951 -46.8399C290.518 -51.6292 297.993 -51.6292 302.56 -46.8399L437.014 94.142C441.581 98.9314 441.581 106.769 437.014 111.558C432.446 116.347 424.972 116.347 420.404 111.558Z" stroke="#0070E4" stroke-width="2" stroke-miterlimit="10"/>
<path d="M1398.62 202.745L1337.48 246.733" stroke="#0070E4" stroke-width="0.7797" stroke-miterlimit="10"/>
<path d="M1405.51 208.531L1344.38 252.519" stroke="#0070E4" stroke-width="0.7797" stroke-miterlimit="10"/>
<path d="M1412.41 214.317L1351.27 258.306" stroke="#0070E4" stroke-width="0.7797" stroke-miterlimit="10"/>
<path d="M1419.3 220.103L1358.17 264.092" stroke="#0070E4" stroke-width="0.7797" stroke-miterlimit="10"/>
<path d="M1426.2 225.889L1365.16 269.966" stroke="#0070E4" stroke-width="0.7797" stroke-miterlimit="10"/>
<path d="M1433.09 231.676L1372.06 275.752" stroke="#0070E4" stroke-width="0.7797" stroke-miterlimit="10"/>
<path d="M1440.09 237.55L1378.95 281.539" stroke="#0070E4" stroke-width="0.7797" stroke-miterlimit="10"/>
<path d="M1446.98 243.337L1385.84 287.325" stroke="#0070E4" stroke-width="0.7797" stroke-miterlimit="10"/>
<path d="M1453.87 249.123L1392.74 293.112" stroke="#0070E4" stroke-width="0.7797" stroke-miterlimit="10"/>
<path d="M1460.77 254.909L1399.63 298.898" stroke="#0070E4" stroke-width="0.7797" stroke-miterlimit="10"/>
<path d="M1467.66 260.696L1406.52 304.684" stroke="#0070E4" stroke-width="0.7797" stroke-miterlimit="10"/>
<path d="M1474.55 266.482L1413.52 310.558" stroke="#0070E4" stroke-width="0.7797" stroke-miterlimit="10"/>
<path d="M1481.55 272.356L1420.42 316.344" stroke="#0070E4" stroke-width="0.7797" stroke-miterlimit="10"/>
<path d="M1327.92 214.097C1325.8 233.481 1339.8 250.93 1359.18 253.057C1378.56 255.184 1396.01 241.186 1398.14 221.802C1400.27 202.418 1386.27 184.969 1366.88 182.842C1347.35 180.836 1330.05 194.713 1327.92 214.097ZM1379.3 219.735C1378.3 228.817 1370.18 235.333 1361.1 234.336C1352.02 233.34 1345.5 225.217 1346.5 216.135C1347.49 207.053 1355.61 200.537 1364.7 201.533C1373.78 202.53 1380.3 210.653 1379.3 219.735Z" fill="#FDFDFD"/>
<path d="M1400.18 18.4007L1419.77 20.9555L1412.15 2.68113L1400.18 18.4007Z" fill="#FDFDFD"/>
<path d="M1396.18 54.4008L1415.77 56.9556L1408.15 38.6813L1396.18 54.4008Z" fill="#FDFDFD"/>
<path d="M1367.53 45.5346L1387.22 48.0509L1379.6 29.7765L1367.53 45.5346Z" fill="#FDFDFD"/>
<path d="M1367.6 62.8837L1379.02 64.2951L1374.59 53.6812L1367.6 62.8837Z" fill="#0070E4"/>
</svg>
