<svg width="563" height="368" viewBox="0 0 563 368" fill="none" xmlns="http://www.w3.org/2000/svg">
<g opacity="0.45">
<path opacity="0.45" d="M12.1558 89.577C12.1558 89.577 12.2436 89.577 12.3314 89.577C19.9735 89.577 27.7034 89.577 35.3455 89.577C48.9607 89.577 62.5759 89.577 76.1911 89.577C86.2048 89.577 89.3671 89.2261 99.3808 89.577C99.4687 83.4364 97.7997 77.559 94.8131 74.4887C92.3536 71.9447 88.2252 70.5412 84.7994 71.4184C80.4952 72.5588 77.5087 75.4536 74.6978 77.559C73.7316 69.0499 70.218 61.3303 66.4408 59.5759C59.9407 56.681 53.0892 61.2426 50.1026 65.8042C47.5553 69.4885 46.2377 73.8746 45.7106 78.3485C41.4065 73.7869 32.2711 70.3657 29.021 77.559C27.7034 80.3661 27.7913 83.6118 27.967 86.6821C22.6087 85.1908 16.6356 86.3312 12.1558 89.577Z" fill="#D2DEF9"/>
</g>
<g opacity="0.45">
<path opacity="0.45" d="M482.187 34.4877C480.958 29.4875 469.363 22.2065 463.126 26.5926C461.194 17.1186 459.437 11.1535 453.2 6.50418C446.964 1.85488 436.599 7.90774 434.93 20.803C433.261 15.5396 424.74 8.43407 417.976 14.3992C411.652 19.9257 411.037 29.2243 411.652 34.4877H482.187Z" fill="#D2DEF9"/>
</g>
<g opacity="0.45">
<path opacity="0.45" d="M563 100.894C561.067 96.1565 557.466 93.6126 553.162 93.174C547.716 92.5599 542.27 95.7179 542.27 95.7179C542.27 95.7179 544.29 87.9106 541.567 81.77C539.722 77.5593 536.648 73.6118 532.519 72.6469C528.215 71.5942 523.648 73.6996 520.397 77.033C517.147 80.3665 515.127 84.7526 513.282 89.1387C512.316 85.9807 511.086 82.5595 508.276 81.3314C505.377 80.1033 501.951 82.2086 500.458 85.1912C498.964 88.1738 498.877 91.7704 499.052 95.1039C495.627 93.0862 491.322 92.4722 487.985 94.4898C485.789 95.8056 484.295 98.3496 483.944 100.981H563V100.894Z" fill="#D2DEF9"/>
</g>
<path d="M171.498 207.652C153.754 201.599 138.294 189.668 126.787 174.931C115.28 160.194 102.28 127.824 104.476 100.455C155.599 115.631 176.329 163.001 179.403 191.774" fill="#D2DEF9"/>
<path d="M104.476 100.455C104.476 100.455 112.909 166.246 171.937 202.564" stroke="white" stroke-width="1.5" stroke-miterlimit="10"/>
<path d="M104.476 100.455C104.476 100.455 139.349 162.825 177.559 200.809" stroke="white" stroke-width="1.5" stroke-miterlimit="10"/>
<path d="M104.476 100.455C104.476 100.455 155.95 141.246 179.931 197.125" stroke="white" stroke-width="1.5" stroke-miterlimit="10"/>
<path d="M171.673 316.252C151.47 323.796 129.159 323.972 108.428 318.533C87.6982 313.094 53.265 291.69 36.0483 263.794C85.4144 247.039 144.619 269.847 167.633 295.111" fill="#D2DEF9"/>
<path d="M36.0483 263.794C36.0483 263.794 89.8064 320.638 168.511 311.076" stroke="white" stroke-width="1.5" stroke-miterlimit="10" stroke-linejoin="round"/>
<path d="M36.0483 263.794C36.0483 263.794 111.239 297.479 172.288 305.199" stroke="white" stroke-width="1.5" stroke-miterlimit="10" stroke-linejoin="round"/>
<path d="M36.0483 263.794C36.0483 263.794 111.064 264.32 171.849 299.936" stroke="white" stroke-width="1.5" stroke-miterlimit="10" stroke-linejoin="round"/>
<path d="M190.647 177.914C173.518 165.194 161.396 146.948 154.808 126.772C148.22 106.683 147.429 66.6817 161.308 37.3823C201.802 69.2256 214.715 130.544 206.106 163.176" fill="#E9F1FF"/>
<path d="M161.308 37.3823C161.308 37.3823 143.038 112.473 193.282 172.475" stroke="white" stroke-width="1.5" stroke-miterlimit="10" stroke-linejoin="round"/>
<path d="M161.308 37.3823C161.308 37.3823 173.781 117.736 200.221 172.475" stroke="white" stroke-width="1.5" stroke-miterlimit="10" stroke-linejoin="round"/>
<path d="M161.308 37.3823C161.308 37.3823 201.187 99.7531 204.35 169.229" stroke="white" stroke-width="1.5" stroke-miterlimit="10" stroke-linejoin="round"/>
<path d="M345.596 168.44C362.812 165.194 378.799 156.159 391.448 144.053C404.097 131.86 420.435 103.613 422.016 77.9102C372.65 85.1911 347.089 126.421 340.413 152.65" fill="#D2DEF9"/>
<path d="M422.017 77.9102C422.017 77.9102 405.503 137.825 345.859 163.615" stroke="white" stroke-width="1.5" stroke-miterlimit="10" stroke-linejoin="round"/>
<path d="M422.017 77.9102C422.017 77.9102 381.435 131.158 340.94 161.247" stroke="white" stroke-width="1.5" stroke-miterlimit="10" stroke-linejoin="round"/>
<path d="M422.017 77.9102C422.017 77.9102 368.873 108.964 339.184 157.562" stroke="white" stroke-width="1.5" stroke-miterlimit="10" stroke-linejoin="round"/>
<path d="M393.909 307.568C419.119 312.393 445.646 308.708 469.363 298.971C493.08 289.234 530.588 259.408 546.487 225.372C475.336 208.792 418.504 251.162 395.226 283.269" fill="#D2DEF9"/>
<path d="M546.486 225.459C546.486 225.459 491.762 298.093 396.807 301.339" stroke="white" stroke-width="1.5" stroke-miterlimit="10" stroke-linejoin="round"/>
<path d="M546.487 225.459C546.487 225.459 471.647 275.373 394.963 289.496" stroke="white" stroke-width="1.5" stroke-miterlimit="10" stroke-linejoin="round"/>
<path d="M546.486 225.459C546.486 225.459 457.505 239.231 391.01 289.496" stroke="white" stroke-width="1.5" stroke-miterlimit="10" stroke-linejoin="round"/>
<path d="M323.285 161.772C344.982 152.474 362.813 135.807 375.111 115.718C387.408 95.6297 398.564 52.7334 391.01 17.5566C339.184 41.5926 309.494 104.49 310.46 141.859" fill="#E9F1FF"/>
<path d="M391.009 17.5566C391.009 17.5566 391.449 103.349 321.879 155.193" stroke="white" stroke-width="1.5" stroke-miterlimit="10" stroke-linejoin="round"/>
<path d="M391.01 17.5566C391.01 17.5566 356.928 101.156 314.413 153.439" stroke="white" stroke-width="1.5" stroke-miterlimit="10" stroke-linejoin="round"/>
<path d="M391.01 17.5566C391.01 17.5566 331.894 74.664 310.724 148.965" stroke="white" stroke-width="1.5" stroke-miterlimit="10" stroke-linejoin="round"/>
<path d="M168.247 283.181C156.477 285.023 136.449 287.742 125.381 280.373C119.233 276.338 118.179 268.794 115.719 262.127C111.591 250.811 103.246 244.056 92.0901 242.126C87.6103 241.337 82.867 239.319 80.7588 235.109C77.5966 228.793 81.4615 220.634 78.9141 213.968C77.5087 210.371 74.5222 207.915 72.0626 205.02C66.0895 198.177 64.6841 188.002 64.6841 188.002C64.6841 188.002 71.887 190.282 79.8804 187.738C85.063 186.159 90.6847 185.107 96.0429 185.984C100.259 186.686 103.509 188.879 106.232 192.212C109.57 196.16 112.293 199.142 117.037 200.809C124.415 203.353 142.598 197.212 144.618 207.739C145.145 210.634 144.443 213.704 145.848 216.424C148.22 221.248 154.017 218.792 157.97 220.02C164.031 221.95 170.707 226.336 173.342 232.038C179.579 245.635 179.315 264.408 175.802 279.145" fill="#E9F1FF"/>
<path d="M65.4751 188.177C85.3269 209.581 115.28 217.652 134.693 239.582C140.49 246.161 145.146 253.793 150.592 260.636C156.038 267.566 162.626 273.882 170.707 276.601" stroke="white" stroke-width="1.5" stroke-miterlimit="10" stroke-linejoin="round"/>
<path d="M79.2656 229.143C89.6307 230.284 105.354 230.021 120.99 227.038C120.99 227.038 117.212 206.95 113.962 199.23" stroke="white" stroke-width="1.5" stroke-miterlimit="10" stroke-linejoin="round"/>
<path d="M79.6172 222.476C91.0364 223.266 100.611 222.652 113.875 222.125" stroke="white" stroke-width="1.5" stroke-miterlimit="10" stroke-linejoin="round"/>
<path d="M77.9482 212.213C77.9482 212.213 87.6106 212.564 96.4825 211.336" stroke="white" stroke-width="1.5" stroke-miterlimit="10" stroke-linejoin="round"/>
<path d="M68.3735 199.318C68.4614 199.493 71.4479 199.844 78.4751 199.669" stroke="white" stroke-width="1.5" stroke-miterlimit="10" stroke-linejoin="round"/>
<path d="M92.5295 208.967C92.6173 209.055 87.9618 194.756 84.3604 186.598" stroke="white" stroke-width="1.5" stroke-miterlimit="10" stroke-linejoin="round"/>
<path d="M111.152 220.371C111.064 220.371 106.584 197.738 102.104 188.352" stroke="white" stroke-width="1.5" stroke-miterlimit="10" stroke-linejoin="round"/>
<path d="M102.192 245.635C102.543 245.81 122.044 247.126 138.118 243.705" stroke="white" stroke-width="1.5" stroke-miterlimit="10" stroke-linejoin="round"/>
<path d="M133.199 238.004C133.199 238.004 131.179 213.88 128.104 201.599" stroke="white" stroke-width="1.5" stroke-miterlimit="10" stroke-linejoin="round"/>
<path d="M148.747 217.126C151.031 231.951 151.294 261.514 151.294 261.514C151.294 261.514 126.172 264.935 115.719 262.04" stroke="white" stroke-width="1.5" stroke-miterlimit="10" stroke-linejoin="round"/>
<path d="M162.098 272.04C162.098 272.04 162.977 238.618 161.044 221.161" stroke="white" stroke-width="1.5" stroke-miterlimit="10" stroke-linejoin="round"/>
<path d="M117.564 268.707C117.564 268.707 137.855 271.601 154.896 265.636" stroke="white" stroke-width="1.5" stroke-miterlimit="10" stroke-linejoin="round"/>
<path d="M166.227 274.671C166.227 274.671 172.024 248.267 167.808 225.108" stroke="white" stroke-width="1.5" stroke-miterlimit="10" stroke-linejoin="round"/>
<path d="M330.224 139.579C335.582 125.806 344.278 112.122 338.92 96.858C335.934 88.4367 326.974 84.8401 320.035 80.3662C308.176 72.5589 302.906 60.7164 303.784 46.7685C304.136 41.1542 303.169 34.9259 298.865 31.3293C292.541 25.8905 282.088 28.6099 275.236 23.8729C271.547 21.3289 269.527 17.1183 266.892 13.4339C260.743 4.3985 249.587 0.100098 249.587 0.100098C249.587 0.100098 250.202 9.39869 245.107 18.5218C241.857 24.3992 239.134 30.8907 238.607 37.7331C238.168 43.0841 239.837 47.4703 242.911 51.6809C246.513 56.6811 249.148 60.8041 249.763 66.9447C250.641 76.5064 238.519 97.0335 250.026 102.121C253.188 103.525 256.878 103.437 259.601 105.718C264.52 109.841 260.04 116.245 260.391 121.333C260.918 129.14 263.993 138.351 269.79 142.912C283.581 153.79 305.014 158.176 322.846 157.562" fill="#E9F1FF"/>
<path d="M249.587 1.06494C268.472 30.452 269.351 68.7867 289.027 97.7352C294.912 106.42 302.291 113.964 308.703 122.297C315.028 130.631 320.474 140.193 321.264 150.632" stroke="white" stroke-width="1.5" stroke-miterlimit="10" stroke-linejoin="round"/>
<path d="M278.574 77.9978C278.574 77.9978 256.702 68.3483 248.884 62.5586" stroke="white" stroke-width="1.5" stroke-miterlimit="10" stroke-linejoin="round"/>
<path d="M284.811 26.6802C282.615 40.7158 279.189 52.1197 274.885 68.0852" stroke="white" stroke-width="1.5" stroke-miterlimit="10" stroke-linejoin="round"/>
<path d="M273.568 22.1187C273.568 22.1187 271.284 33.9612 267.419 44.3125" stroke="white" stroke-width="1.5" stroke-miterlimit="10" stroke-linejoin="round"/>
<path d="M261.445 7.38135C261.621 7.46907 261.182 11.2411 259.074 19.7502" stroke="white" stroke-width="1.5" stroke-miterlimit="10" stroke-linejoin="round"/>
<path d="M265.838 39.049C265.838 39.1368 250.905 30.0136 242.56 23.6099" stroke="white" stroke-width="1.5" stroke-miterlimit="10" stroke-linejoin="round"/>
<path d="M273.655 64.4009C273.655 64.3132 249.148 53.2601 239.573 45.5405" stroke="white" stroke-width="1.5" stroke-miterlimit="10" stroke-linejoin="round"/>
<path d="M303.257 39.0488C301.149 47.1193 297.021 68.1727 284.811 89.0507" stroke="white" stroke-width="1.5" stroke-miterlimit="10" stroke-linejoin="round"/>
<path d="M287.621 95.5421C287.621 95.5421 260.654 87.1207 247.479 80.2783" stroke="white" stroke-width="1.5" stroke-miterlimit="10" stroke-linejoin="round"/>
<path d="M318.454 138.965C318.454 138.965 280.068 131.772 260.655 125.017" stroke="white" stroke-width="1.5" stroke-miterlimit="10" stroke-linejoin="round"/>
<path d="M327.062 84.2261C327.062 84.2261 324.69 109.49 313.271 128.789" stroke="white" stroke-width="1.5" stroke-miterlimit="10" stroke-linejoin="round"/>
<path d="M407.348 260.373C422.632 257.391 439.585 257.566 450.214 244.32C456.099 237.039 454.167 227.039 454.43 218.354C454.781 203.529 462.336 192.213 475.336 185.195C480.519 182.388 485.525 178.089 486.404 172.212C487.721 163.527 479.464 155.896 479.904 147.123C480.079 142.386 482.715 138.263 484.559 133.877C489.039 123.438 486.667 111.069 486.667 111.069C486.667 111.069 478.762 116.771 467.782 117.298C460.755 117.649 453.464 118.877 447.051 122.21C442.132 124.842 439.058 128.702 437.038 133.789C434.578 139.755 432.47 144.404 427.287 148.351C419.294 154.404 394.26 155.194 396.192 168.177C396.719 171.686 398.827 175.019 398.3 178.616C397.334 185.283 389.165 184.932 384.773 188.002C378.097 192.827 371.685 200.722 370.806 208.354C368.786 226.688 376.867 248.092 387.32 263.619" fill="#E9F1FF"/>
<path d="M485.701 111.684C470.154 144.843 436.423 166.949 421.666 200.459C417.274 210.547 414.639 221.249 410.774 231.6C406.909 241.864 401.375 251.952 392.591 258.531" stroke="white" stroke-width="1.5" stroke-miterlimit="10" stroke-linejoin="round"/>
<path d="M485.701 164.756C473.403 170.458 453.903 176.949 433.348 180.283C433.348 180.283 429.747 155.545 430.537 145.281" stroke="white" stroke-width="1.5" stroke-miterlimit="10" stroke-linejoin="round"/>
<path d="M482.539 157.211C468.836 163.089 456.714 166.335 440.112 171.422" stroke="white" stroke-width="1.5" stroke-miterlimit="10" stroke-linejoin="round"/>
<path d="M480.343 144.754C480.343 144.754 468.485 149.316 457.153 151.684" stroke="white" stroke-width="1.5" stroke-miterlimit="10" stroke-linejoin="round"/>
<path d="M486.755 125.719C486.755 125.895 483.154 127.649 474.458 130.544" stroke="white" stroke-width="1.5" stroke-miterlimit="10" stroke-linejoin="round"/>
<path d="M461.018 147.211C460.93 147.298 460.754 128.877 461.809 117.999" stroke="white" stroke-width="1.5" stroke-miterlimit="10" stroke-linejoin="round"/>
<path d="M442.747 168.265C442.835 168.177 439.058 140.281 440.551 127.562" stroke="white" stroke-width="1.5" stroke-miterlimit="10" stroke-linejoin="round"/>
<path d="M464.268 193.528C463.917 193.879 440.375 203.792 419.206 206.774" stroke="white" stroke-width="1.5" stroke-miterlimit="10" stroke-linejoin="round"/>
<path d="M422.808 198.002C422.808 198.002 415.254 169.405 414.024 153.878" stroke="white" stroke-width="1.5" stroke-miterlimit="10" stroke-linejoin="round"/>
<path d="M395.05 180.721C398.388 198.792 410.246 232.916 410.246 232.916C410.246 232.916 442.659 226.074 454.342 218.266" stroke="white" stroke-width="1.5" stroke-miterlimit="10" stroke-linejoin="round"/>
<path d="M401.374 249.583C401.374 249.583 386.442 211.512 381.61 190.546" stroke="white" stroke-width="1.5" stroke-miterlimit="10" stroke-linejoin="round"/>
<path d="M454.869 226.688C454.869 226.688 431.065 238.706 407.523 239.232" stroke="white" stroke-width="1.5" stroke-miterlimit="10" stroke-linejoin="round"/>
<path d="M397.334 254.408C397.334 254.408 379.239 226.6 374.847 198.09" stroke="white" stroke-width="1.5" stroke-miterlimit="10" stroke-linejoin="round"/>
<path d="M345.508 198.09C347.616 202.476 356.049 220.81 358.069 225.196C351.305 227.389 345.069 230.109 338.481 232.653C335.67 236.425 341.906 228.968 342.258 224.845" fill="#FFAD8A"/>
<path d="M360.001 231.249L356.137 232.565C355.961 232.214 355.697 230.986 355.434 230.723C354.731 230.986 353.238 231.6 353.062 231.775C352.886 231.863 352.799 232.389 352.623 232.828C352.447 233.442 352.008 233.968 351.393 234.144L336.197 239.407C334.352 240.021 333.21 237.828 334.879 236.074C336.373 234.407 339.535 230.898 339.71 230.81C345.947 229.319 355.434 224.757 356.664 222.038C358.772 223.091 360.001 231.161 360.001 231.249Z" fill="#0B0B3A"/>
<path d="M343.839 148.263C344.191 158.176 343.137 178.089 344.454 186.598C345.333 191.949 354.907 218.353 354.907 218.353L342.258 224.933C342.258 224.933 331.454 208.178 325.217 188.44C321.177 175.633 320.913 161.509 320.913 149.93" fill="#FFAD8A"/>
<path d="M376.779 177.563C380.293 180.809 394.962 194.757 398.564 198.002C393.118 202.476 388.374 207.389 383.192 212.213C381.962 216.775 385.036 207.476 383.806 203.617" fill="#FFAD8A"/>
<path d="M402.604 203.003L399.53 205.634C399.266 205.284 398.564 204.406 398.212 204.143C397.597 204.67 396.456 205.81 396.368 205.985C396.28 206.161 396.368 206.687 396.368 207.126C396.456 207.828 396.192 208.442 395.753 208.792L383.543 219.319C382.05 220.635 380.205 218.968 381.084 216.688C381.874 214.67 383.543 210.196 383.631 210.021C388.901 206.336 396.016 198.617 396.104 195.546C398.388 195.897 402.604 202.915 402.604 203.003Z" fill="#0B0B3A"/>
<path d="M364.482 129.578C364.482 129.578 363.691 158.79 367.732 166.246C372.475 175.018 387.935 188.177 387.935 188.177L383.806 203.616C383.806 203.616 362.198 191.51 350.866 177.036C342.258 165.983 341.907 131.245 341.907 131.245" fill="#FFAD8A"/>
<path d="M363.252 105.104C378.536 116.859 377.219 163.878 377.219 163.878C377.219 163.878 360.266 168.352 346.387 168.352C332.508 168.352 318.103 166.159 318.103 166.159C318.981 125.719 326.096 115.192 330.224 108.262" fill="#18277A"/>
<path d="M334.792 40.8911C334.792 40.8911 338.218 50.8915 337.691 53.26C337.164 55.6285 329.521 54.9267 327.589 54.839C327.413 49.7511 329.17 42.5578 329.17 42.5578" fill="#212237"/>
<path d="M336.021 52.6456L336.812 58.2598C336.812 58.2598 340.853 60.8915 344.278 59.4879C347.88 57.9967 347.704 56.0668 347.704 56.0668L343.4 45.8032" fill="#FFAD8A"/>
<path d="M330.312 42.9087C330.224 50.1019 331.541 55.7162 336.285 55.3653C341.292 55.0144 344.981 50.8914 343.224 45.2772C341.292 39.312 330.663 38.698 330.312 42.9087Z" fill="#FFAD8A"/>
<path d="M336.461 55.7165C338.92 55.2779 341.819 54.0498 343.137 50.7163" stroke="#FFAD8A" stroke-width="0.75" stroke-miterlimit="10" stroke-linejoin="round"/>
<path d="M342.346 44.9263C342.346 44.9263 342.346 45.014 342.346 44.9263C342.346 45.014 342.346 45.014 342.346 45.014C342.434 45.014 342.434 45.014 342.346 44.9263C342.434 45.014 342.434 44.9263 342.346 44.9263C342.434 44.9263 342.434 44.9263 342.346 44.9263C342.434 44.9263 342.346 44.9263 342.346 44.9263Z" fill="#FF855A"/>
<path d="M337.778 42.3824C333.737 43.4351 330.839 43.3473 328.116 42.2947C328.555 39.8384 330.048 36.4173 334.528 36.3295C337.69 33.4347 341.38 34.4874 342.346 34.7505C344.981 35.6277 346.738 37.2068 348.143 39.5753C350.427 43.4351 350.954 49.3125 350.866 52.5582C347.353 53.5231 344.366 54.0495 342.082 54.1372C342.258 54.2249 340.765 44.4877 337.778 42.3824Z" fill="#212237"/>
<path d="M340.15 47.1193C340.062 46.9438 340.237 46.3298 340.764 45.9789C341.731 45.3648 342.697 46.5929 342.785 47.6456C342.873 48.3474 342.697 48.8737 342.346 49.4878C341.906 50.2773 341.116 50.6282 340.501 49.8387" fill="#FFAD8A"/>
<path d="M334.001 46.6812C334.001 46.6812 333.211 49.4006 333.474 50.0146C333.826 50.6287 335.319 50.2778 335.319 50.2778" stroke="#FFAD8A" stroke-width="0.5" stroke-miterlimit="10" stroke-linejoin="round"/>
<path d="M333.914 51.5931L338.306 50.979C338.306 50.979 338.13 53.3475 335.758 53.523C334.001 53.6107 333.914 51.5931 333.914 51.5931Z" fill="white"/>
<path d="M332.069 46.4175C332.069 46.5052 332.069 46.5929 332.069 46.5929C332.069 46.6806 332.069 46.6806 332.069 46.7684C332.069 46.8561 332.069 46.9438 332.069 47.0315C332.069 47.1192 332.069 47.207 332.157 47.2947C332.245 47.3824 332.333 47.3824 332.421 47.3824C332.509 47.3824 332.596 47.3824 332.684 47.2947C332.772 47.207 332.772 47.1192 332.772 47.0315C332.772 46.9438 332.772 46.8561 332.772 46.7684C332.772 46.6806 332.772 46.5052 332.684 46.4175V46.3297L332.596 46.242C332.509 46.242 332.509 46.1543 332.421 46.1543C332.333 46.1543 332.333 46.1543 332.245 46.1543C332.157 46.242 332.069 46.3297 332.069 46.4175Z" fill="#00276F"/>
<path d="M333.211 45.1014C333.211 45.1014 332.332 44.3996 331.629 45.3646" stroke="#00276F" stroke-width="0.5" stroke-miterlimit="10" stroke-linecap="round" stroke-linejoin="round"/>
<path d="M337.164 46.2426C337.164 46.3303 337.164 46.3303 337.164 46.418C337.164 46.5058 337.164 46.5058 337.164 46.5935C337.164 46.6812 337.164 46.7689 337.164 46.8566C337.164 46.9444 337.164 46.9444 337.164 47.0321C337.164 47.0321 337.164 47.1198 337.251 47.1198C337.339 47.2075 337.427 47.2075 337.515 47.2075C337.603 47.2075 337.691 47.2075 337.778 47.1198C337.866 47.0321 337.866 46.9444 337.866 46.8566C337.866 46.7689 337.866 46.5935 337.866 46.5058C337.866 46.418 337.866 46.418 337.866 46.3303C337.866 46.2426 337.866 46.2426 337.866 46.1549C337.866 46.0671 337.778 45.9794 337.691 45.9794C337.603 45.9794 337.603 45.8917 337.515 45.9794C337.427 45.9794 337.427 45.9794 337.339 46.0671C337.339 46.0671 337.339 46.0671 337.251 46.1549C337.164 46.1549 337.164 46.1549 337.164 46.2426Z" fill="#00276F"/>
<path d="M336.549 44.6635C336.549 44.6635 337.427 44.0495 338.921 44.9267" stroke="#00276F" stroke-width="0.5" stroke-miterlimit="10" stroke-linecap="round" stroke-linejoin="round"/>
<path d="M332.245 82.6474C318.454 101.771 290.257 119.052 290.257 119.052L284.46 111.684C284.46 111.684 305.542 93.9636 318.278 73.6997" fill="#FFAD8A"/>
<path d="M286.92 109.666C284.372 111.947 275.676 117.21 275.852 117.912C276.028 118.614 279.102 116.772 279.19 117.298C279.278 117.912 274.71 120.982 275.061 121.596C275.588 122.473 279.98 118.965 279.98 118.965C279.98 118.965 275.325 123 276.028 123.614C276.467 124.053 280.244 121.158 281.737 120.193C280.156 121.421 277.872 123.702 278.399 124.14C278.926 124.579 281.474 122.649 283.494 121.333C282.264 122.298 280.244 124.228 280.683 124.667C281.122 125.105 287.71 120.807 293.771 116.596" fill="#FFAD8A"/>
<path d="M280.244 117.298C280.244 117.298 283.582 117.385 284.987 116.684" stroke="#FFAD8A" stroke-width="0.75" stroke-miterlimit="10" stroke-linejoin="round"/>
<path d="M335.231 58.348C329.17 57.2954 323.812 61.5938 321.44 65.2781C316.697 72.8223 314.149 78.7874 314.149 78.7874L328.379 87.2965L336.461 61.9447" fill="#22252D"/>
<path d="M335.232 58.348C338.042 58.8744 338.745 59.8393 340.678 59.2252C344.279 58.0849 347.002 56.2427 347.002 56.2427C344.63 56.4181 354.644 58.2603 362.374 66.3308C364.921 75.1907 365.273 83.963 365.975 107.297C346.914 113.438 330.312 108.262 330.312 108.262C330.312 108.262 328.116 98.0863 325.657 90.5422C322.231 83.6121 323.724 75.8048 327.589 69.4011C327.677 65.5413 335.232 58.348 335.232 58.348Z" fill="#22252D"/>
<path d="M346.738 53.874L340.238 59.3128L344.367 63.7867L348.671 57.2075L346.738 53.874Z" fill="white"/>
<path d="M340.238 59.3128L336.549 56.418L335.231 58.3479L336.988 63.6112L340.238 59.3128Z" fill="white"/>
<path d="M323.724 82.6469C323.46 78.1731 326.184 71.1553 326.184 71.1553" stroke="#A52F2D" stroke-width="0.75" stroke-miterlimit="10"/>
<path d="M394.786 352.13C394.522 352.13 394.259 352.13 393.995 352.13L300.446 345.551C294.121 345.112 289.378 339.586 289.817 333.357L291.75 305.9C291.838 304.146 293.243 302.83 295 302.83C295.79 302.83 296.669 303.181 297.284 303.707C300.182 306.427 303.696 308.006 307.385 308.269C307.737 308.269 308.176 308.269 308.527 308.269C318.014 308.269 326.007 299.76 326.798 288.97C327.588 277.654 320.21 267.916 310.284 267.215C309.933 267.215 309.493 267.215 309.142 267.215C305.804 267.215 302.466 268.267 299.567 270.373C299.04 270.811 298.338 270.987 297.635 270.987C296.757 270.987 295.878 270.636 295.176 269.934C294.561 269.232 294.297 268.443 294.297 267.478L296.23 240.021C296.669 234.056 301.676 229.406 307.649 229.406C307.912 229.406 308.176 229.406 308.439 229.406L336.899 231.424C338.217 231.512 339.359 232.389 339.798 233.617C340.237 234.845 339.886 236.161 338.92 237.126C335.758 240.108 333.825 243.968 333.474 248.091C332.771 258.004 341.379 266.688 352.711 267.478C353.238 267.478 353.853 267.566 354.38 267.566C365.008 267.566 373.88 260.285 374.495 251.074C374.759 246.951 373.441 242.828 370.718 239.407C369.927 238.442 369.752 237.126 370.279 235.985C370.806 234.845 371.948 234.143 373.265 234.143C373.353 234.143 373.441 234.143 373.529 234.143L401.989 236.161C408.313 236.6 413.057 242.126 412.618 248.354L406.03 341.779C405.766 347.481 400.759 352.13 394.786 352.13Z" fill="#83A3FC"/>
<path d="M307.824 229.933C308.088 229.933 308.351 229.933 308.615 229.933L337.075 231.95C339.359 232.126 340.325 234.933 338.656 236.424C335.406 239.407 333.386 243.354 333.034 247.828C332.332 258.092 341.204 267.039 352.886 267.917C353.501 267.917 354.028 268.004 354.643 268.004C365.623 268.004 374.758 260.636 375.461 250.899C375.812 246.425 374.231 242.214 371.508 238.793C370.103 237.038 371.421 234.582 373.529 234.582C373.617 234.582 373.617 234.582 373.704 234.582L402.164 236.6C408.138 237.038 412.617 242.214 412.178 248.091L405.59 341.516C405.151 347.218 400.408 351.516 394.786 351.516C394.522 351.516 394.259 351.516 393.995 351.516L300.446 344.849C294.473 344.411 289.993 339.235 290.432 333.358L292.365 305.901C292.452 304.409 293.682 303.444 295 303.444C295.615 303.444 296.23 303.708 296.844 304.146C299.743 306.866 303.345 308.62 307.385 308.883C307.737 308.883 308.176 308.883 308.527 308.883C318.277 308.883 326.622 300.199 327.501 288.97C328.291 277.303 320.649 267.215 310.372 266.513C310.02 266.513 309.581 266.513 309.23 266.513C305.628 266.513 302.203 267.654 299.304 269.759C298.865 270.11 298.338 270.285 297.811 270.285C296.405 270.285 295.088 269.145 295.175 267.478L297.108 240.021C297.459 234.231 302.203 229.933 307.824 229.933ZM307.824 228.617C301.5 228.617 296.23 233.529 295.79 239.845L293.858 267.303C293.77 268.443 294.121 269.408 294.912 270.285C295.703 271.075 296.757 271.513 297.811 271.513C298.601 271.513 299.392 271.25 300.094 270.812C302.905 268.882 306.068 267.829 309.23 267.829C309.581 267.829 309.933 267.829 310.284 267.829C319.858 268.531 326.974 277.917 326.183 288.882C325.48 299.321 317.662 307.567 308.527 307.567C308.176 307.567 307.824 307.567 307.473 307.567C303.872 307.304 300.534 305.813 297.723 303.181C297.02 302.479 296.054 302.128 295 302.128C292.892 302.128 291.223 303.708 291.047 305.813L289.115 333.27C288.851 336.516 289.905 339.586 292.013 342.042C294.121 344.498 297.108 345.99 300.27 346.165L393.82 352.744C394.083 352.744 394.435 352.744 394.698 352.744C401.023 352.744 406.293 347.832 406.732 341.516L413.32 248.091C413.759 241.425 408.752 235.635 402.077 235.196L373.617 233.179C373.529 233.179 373.441 233.179 373.353 233.179C371.86 233.179 370.454 234.056 369.839 235.459C369.225 236.863 369.4 238.442 370.366 239.582C373.089 242.916 374.319 246.776 374.056 250.723C373.441 259.671 364.833 266.689 354.555 266.689C354.028 266.689 353.501 266.689 352.886 266.601C347.528 266.25 342.697 264.057 339.095 260.46C335.582 256.951 333.913 252.478 334.176 247.916C334.44 243.881 336.285 240.284 339.359 237.389C340.501 236.337 340.94 234.758 340.413 233.179C339.886 231.687 338.568 230.635 336.987 230.547L308.527 228.529C308.439 228.617 308.088 228.617 307.824 228.617Z" fill="white"/>
<path d="M261.708 227.39C261.269 227.39 260.742 227.39 260.303 227.302L231.842 223.706C230.525 223.53 229.471 222.653 229.119 221.337C228.768 220.021 229.119 218.793 230.173 217.916C233.599 215.109 235.795 211.249 236.322 207.126C236.937 202.389 235.356 197.652 231.93 193.792C228.504 189.933 223.585 187.389 218.139 186.687C217.173 186.599 216.119 186.511 215.153 186.511C205.051 186.511 196.531 193.178 195.477 201.951C194.95 206.073 196.092 210.372 198.727 213.881C199.429 214.933 199.605 216.162 198.99 217.302C198.463 218.442 197.321 219.144 196.092 219.144C195.916 219.144 195.828 219.144 195.652 219.144L167.192 215.547C164.118 215.197 161.483 213.618 159.55 211.249C157.705 208.793 156.827 205.81 157.266 202.828L168.949 109.93C169.652 104.228 174.571 99.9292 180.28 99.9292C180.72 99.9292 181.247 99.9292 181.686 100.017L274.708 111.684C277.783 112.035 280.418 113.614 282.35 115.982C284.195 118.439 285.073 121.421 284.634 124.404L281.121 152.3C280.945 153.966 279.54 155.194 277.871 155.194C276.904 155.194 276.026 154.756 275.411 154.054C272.6 150.808 268.999 148.878 265.046 148.352C264.431 148.264 263.728 148.264 263.026 148.264C253.802 148.264 245.897 156.159 244.579 166.511C243.174 177.739 250.025 187.915 259.863 189.143C260.478 189.231 261.181 189.231 261.884 189.231C265.222 189.231 268.472 188.178 271.37 186.16C271.897 185.81 272.512 185.546 273.215 185.546C274.181 185.546 275.06 185.985 275.675 186.687C276.289 187.389 276.553 188.266 276.465 189.231L272.952 217.126C272.337 223.092 267.505 227.39 261.708 227.39Z" fill="#B5C8F7"/>
<path d="M180.369 100.631C180.808 100.631 181.247 100.631 181.686 100.719L274.797 112.386C280.682 113.088 284.898 118.526 284.195 124.404L280.682 152.3C280.506 153.703 279.276 154.58 278.047 154.58C277.344 154.58 276.641 154.317 276.114 153.703C273.303 150.545 269.614 148.352 265.31 147.826C264.607 147.738 263.904 147.738 263.202 147.738C253.803 147.738 245.458 155.721 244.14 166.598C242.647 178.266 249.762 188.705 260.039 189.933C260.742 190.02 261.445 190.02 262.06 190.02C265.573 190.02 268.999 188.88 271.898 186.862C272.337 186.511 272.864 186.424 273.391 186.424C274.884 186.424 276.202 187.74 276.026 189.406L272.513 217.302C271.81 222.741 267.155 226.776 261.796 226.776C261.357 226.776 260.918 226.776 260.479 226.688L232.019 223.092C229.735 222.829 228.944 219.934 230.701 218.53C234.127 215.723 236.498 211.776 237.025 207.302C238.343 197.126 229.91 187.652 218.228 186.161C217.174 186.073 216.207 185.985 215.153 185.985C204.788 185.985 195.916 192.74 194.774 202.038C194.247 206.512 195.565 210.898 198.2 214.495C199.518 216.249 198.2 218.618 196.092 218.618C196.004 218.618 195.828 218.618 195.741 218.618L167.281 215.021C161.395 214.319 157.179 208.881 157.882 203.003L169.652 110.017C170.355 104.579 175.01 100.631 180.369 100.631ZM180.369 99.3153C174.308 99.3153 169.125 103.877 168.335 109.93L156.652 202.74C155.861 209.319 160.517 215.46 167.193 216.249L195.653 219.846C195.828 219.846 196.004 219.846 196.18 219.846C197.673 219.846 198.991 219.057 199.693 217.653C200.396 216.337 200.22 214.758 199.342 213.53C196.795 210.109 195.653 205.986 196.18 202.038C197.234 193.529 205.403 187.126 215.241 187.126C216.207 187.126 217.174 187.213 218.14 187.301C223.41 188.003 228.241 190.371 231.579 194.143C234.829 197.828 236.323 202.389 235.796 206.951C235.269 210.898 233.16 214.583 229.91 217.302C228.681 218.267 228.154 219.846 228.593 221.425C229.032 223.004 230.262 224.057 231.843 224.232L260.303 227.829C260.83 227.916 261.357 227.916 261.796 227.916C267.857 227.916 273.04 223.355 273.83 217.302L277.344 189.406C277.52 188.266 277.168 187.213 276.378 186.336C275.587 185.459 274.533 185.02 273.391 185.02C272.601 185.02 271.81 185.283 271.195 185.722C268.384 187.652 265.222 188.617 262.06 188.617C261.445 188.617 260.83 188.617 260.127 188.529C250.641 187.301 244.053 177.476 245.37 166.598C246.6 156.51 254.242 148.878 263.114 148.878C263.729 148.878 264.431 148.878 265.046 148.966C268.911 149.405 272.337 151.335 275.06 154.405C275.851 155.282 276.817 155.721 277.959 155.721C279.979 155.721 281.648 154.23 281.912 152.3L285.425 124.404C286.216 117.825 281.56 111.684 274.884 110.895L181.862 99.2275C181.423 99.3153 180.896 99.3153 180.369 99.3153Z" fill="white"/>
<g opacity="0.25">
<path opacity="0.25" d="M169.301 164.581C198.845 164.581 222.795 140.663 222.795 111.158C222.795 81.6532 198.845 57.7349 169.301 57.7349C139.756 57.7349 115.806 81.6532 115.806 111.158C115.806 140.663 139.756 164.581 169.301 164.581Z" stroke="white" stroke-width="11" stroke-miterlimit="10"/>
<path opacity="0.25" d="M168.159 146.422C188.292 146.422 204.613 130.123 204.613 110.018C204.613 89.9118 188.292 73.6128 168.159 73.6128C148.026 73.6128 131.706 89.9118 131.706 110.018C131.706 130.123 148.026 146.422 168.159 146.422Z" stroke="white" stroke-width="11" stroke-miterlimit="10"/>
<path opacity="0.25" d="M169.301 128.79C179.052 128.79 186.957 120.896 186.957 111.158C186.957 101.42 179.052 93.5259 169.301 93.5259C159.55 93.5259 151.645 101.42 151.645 111.158C151.645 120.896 159.55 128.79 169.301 128.79Z" stroke="white" stroke-width="11" stroke-miterlimit="10"/>
</g>
<path d="M346.825 256.689C334.703 256.601 325.041 247.829 325.129 237.215C325.216 232.653 327.061 228.267 330.399 224.846C331.102 224.144 331.014 223.355 330.838 222.741C330.575 222.126 329.96 221.512 329.081 221.512L300.358 221.249C297.283 221.249 294.472 220.021 292.276 217.828C290.08 215.635 288.938 212.74 289.026 209.67L289.29 181.95C289.29 181.248 289.026 180.809 288.763 180.546C288.411 180.195 287.884 179.932 287.357 179.932C286.918 179.932 286.479 180.107 286.128 180.371C282.79 183.09 278.925 184.581 274.796 184.581H274.621C263.992 184.494 255.384 174.581 255.559 162.475C255.647 150.545 264.343 140.808 274.884 140.808H275.06C279.188 140.808 283.141 142.387 286.479 145.194C286.83 145.457 287.27 145.632 287.709 145.632C288.675 145.632 289.641 144.931 289.641 143.703L289.905 115.982C289.993 109.754 295.087 104.666 301.324 104.666L395.225 105.631C398.299 105.631 401.11 106.859 403.306 109.052C405.414 111.245 406.644 114.14 406.556 117.21L405.59 210.81C405.502 217.039 400.407 222.126 394.171 222.126L365.359 221.863C364.393 221.863 363.778 222.477 363.515 223.004C363.163 223.705 363.339 224.495 363.866 225.109C367.116 228.618 368.961 233.004 368.873 237.566C368.785 248.092 358.947 256.601 347.001 256.601L346.825 256.689Z" fill="#0070E4"/>
<path d="M301.412 105.368H301.5L395.225 106.333C401.198 106.42 405.941 111.245 405.941 117.21L404.975 210.81C404.887 216.687 400.056 221.512 394.171 221.512H394.083L365.359 221.249C363.075 221.249 361.846 223.968 363.427 225.635C366.501 228.881 368.258 233.092 368.258 237.653C368.17 247.829 358.683 256.075 347.089 256.075C347.001 256.075 346.913 256.075 346.825 256.075C335.054 255.987 325.656 247.478 325.743 237.215C325.831 232.653 327.676 228.53 330.838 225.284C332.419 223.618 331.277 220.898 328.994 220.898L300.27 220.635C294.297 220.547 289.553 215.723 289.553 209.757L289.817 182.037C289.817 180.458 288.587 179.405 287.182 179.405C286.655 179.405 286.04 179.581 285.601 180.019C282.526 182.563 278.749 184.055 274.708 184.055C274.621 184.055 274.621 184.055 274.533 184.055C264.255 183.967 255.999 174.405 256.086 162.65C256.174 150.983 264.519 141.597 274.796 141.597C274.884 141.597 274.884 141.597 274.972 141.597C279.1 141.597 282.878 143.176 285.952 145.808C286.479 146.246 287.006 146.422 287.621 146.422C288.938 146.422 290.256 145.369 290.256 143.79L290.52 116.07C290.695 110.105 295.527 105.368 301.412 105.368ZM301.412 104.052C294.824 104.052 289.378 109.403 289.29 116.07L289.026 143.79C289.026 144.58 288.324 145.106 287.709 145.106C287.445 145.106 287.182 145.018 286.918 144.755C283.492 141.772 279.364 140.193 275.06 140.193H274.884C263.992 140.193 255.032 150.194 254.857 162.563C254.769 175.019 263.553 185.195 274.621 185.283H274.796C279.013 185.283 283.141 183.792 286.567 180.984C286.83 180.809 287.094 180.721 287.357 180.721C287.709 180.721 288.06 180.897 288.324 181.16C288.499 181.335 288.675 181.598 288.675 182.125L288.411 209.845C288.411 213.091 289.641 216.161 291.837 218.442C294.121 220.723 297.108 222.039 300.358 222.039L329.081 222.302C329.872 222.302 330.223 222.916 330.311 223.091C330.399 223.267 330.575 223.881 330.048 224.495C326.622 228.004 324.689 232.565 324.602 237.302C324.514 248.268 334.527 257.391 347.001 257.478H347.264C359.562 257.478 369.663 248.618 369.751 237.741C369.839 233.004 367.994 228.442 364.569 224.846C364.042 224.232 364.217 223.618 364.305 223.442C364.393 223.267 364.744 222.653 365.535 222.653L394.259 222.916H394.346C400.934 222.916 406.381 217.565 406.468 210.898L407.435 117.298C407.522 110.631 402.164 105.104 395.488 105.104L301.763 104.139L301.412 104.052Z" fill="white"/>
<path d="M259.073 122.649C257.668 122.913 256.35 121.948 256.175 120.544C255.911 119.141 256.877 117.825 258.283 117.649C259.688 117.386 261.006 118.351 261.182 119.755C261.357 121.07 260.391 122.386 259.073 122.649Z" fill="white"/>
<path d="M282.527 118.702C281.121 118.965 279.804 118 279.628 116.597C279.364 115.193 280.331 113.877 281.736 113.702C283.141 113.439 284.459 114.404 284.635 115.807C284.81 117.123 283.932 118.439 282.527 118.702Z" fill="white"/>
<path d="M306.068 114.667C304.662 114.93 303.345 113.965 303.169 112.561C302.905 111.158 303.872 109.842 305.277 109.666C306.682 109.403 308 110.368 308.176 111.772C308.351 113.175 307.385 114.491 306.068 114.667Z" fill="white"/>
<path d="M329.521 110.719C328.115 110.982 326.798 110.017 326.622 108.614C326.358 107.21 327.325 105.895 328.73 105.719C330.136 105.456 331.453 106.421 331.629 107.824C331.805 109.228 330.926 110.544 329.521 110.719Z" fill="white"/>
<path d="M353.062 106.772C351.657 107.035 350.339 106.07 350.163 104.666C349.9 103.263 350.866 101.947 352.272 101.771C353.677 101.508 354.995 102.473 355.17 103.877C355.346 105.28 354.38 106.508 353.062 106.772Z" fill="white"/>
<path d="M376.516 102.824C375.11 103.087 373.793 102.122 373.617 100.719C373.354 99.3154 374.32 97.9995 375.725 97.8241C377.131 97.5609 378.448 98.5259 378.624 99.9294C378.8 101.333 377.921 102.561 376.516 102.824Z" fill="white"/>
<path d="M400.056 98.8765C398.651 99.1397 397.333 98.1747 397.158 96.7712C396.894 95.3676 397.86 94.0518 399.266 93.8763C400.671 93.6132 401.989 94.5781 402.165 95.9817C402.34 97.2975 401.374 98.6133 400.056 98.8765Z" fill="white"/>
<path d="M262.323 141.86C260.918 142.124 259.6 141.159 259.425 139.755C259.161 138.352 260.127 137.036 261.533 136.86C262.938 136.597 264.256 137.562 264.432 138.966C264.607 140.369 263.641 141.685 262.323 141.86Z" fill="white"/>
<path d="M285.785 137.969C287.171 137.731 288.102 136.416 287.864 135.031C287.626 133.646 286.309 132.717 284.922 132.955C283.536 133.192 282.605 134.508 282.843 135.893C283.081 137.277 284.398 138.207 285.785 137.969Z" fill="white"/>
<path d="M309.318 133.965C307.913 134.229 306.595 133.264 306.419 131.86C306.156 130.456 307.122 129.141 308.528 128.965C309.933 128.702 311.251 129.667 311.426 131.071C311.602 132.474 310.636 133.702 309.318 133.965Z" fill="white"/>
<path d="M332.771 130.018C331.366 130.281 330.048 129.316 329.872 127.913C329.609 126.509 330.575 125.193 331.981 125.018C333.386 124.755 334.704 125.72 334.879 127.123C335.055 128.439 334.177 129.755 332.771 130.018Z" fill="white"/>
<path d="M356.312 126.071C354.907 126.334 353.589 125.369 353.413 123.966C353.15 122.562 354.116 121.246 355.522 121.071C356.927 120.807 358.245 121.772 358.42 123.176C358.596 124.492 357.63 125.808 356.312 126.071Z" fill="white"/>
<path d="M379.766 122.123C378.36 122.386 377.043 121.421 376.867 120.018C376.604 118.614 377.57 117.298 378.975 117.123C380.381 116.86 381.698 117.825 381.874 119.228C382.05 120.544 381.171 121.86 379.766 122.123Z" fill="white"/>
<path d="M403.306 118.175C401.901 118.439 400.583 117.474 400.408 116.07C400.144 114.666 401.11 113.351 402.516 113.175C403.921 112.912 405.239 113.877 405.414 115.281C405.59 116.596 404.624 117.912 403.306 118.175Z" fill="white"/>
<path d="M265.574 161.159C264.169 161.422 262.851 160.457 262.675 159.054C262.412 157.65 263.378 156.334 264.783 156.159C266.189 155.896 267.506 156.861 267.682 158.264C267.858 159.58 266.892 160.896 265.574 161.159Z" fill="white"/>
<path d="M289.027 157.212C287.622 157.475 286.304 156.51 286.128 155.107C285.865 153.703 286.831 152.387 288.236 152.212C289.642 151.949 290.96 152.914 291.135 154.317C291.399 155.633 290.432 156.949 289.027 157.212Z" fill="white"/>
<path d="M312.568 153.264C311.163 153.527 309.845 152.562 309.669 151.159C309.406 149.755 310.372 148.439 311.777 148.264C313.183 148.001 314.501 148.966 314.676 150.369C314.852 151.685 313.886 153.001 312.568 153.264Z" fill="white"/>
<path d="M336.021 149.317C334.616 149.58 333.298 148.615 333.122 147.212C332.859 145.808 333.825 144.492 335.231 144.317C336.636 144.054 337.954 145.019 338.129 146.422C338.305 147.826 337.427 149.054 336.021 149.317Z" fill="white"/>
<path d="M359.562 145.282C358.157 145.545 356.839 144.58 356.663 143.176C356.4 141.773 357.366 140.457 358.772 140.282C360.177 140.018 361.495 140.983 361.67 142.387C361.846 143.791 360.88 145.106 359.562 145.282Z" fill="white"/>
<path d="M383.015 141.334C381.61 141.597 380.292 140.632 380.117 139.229C379.853 137.825 380.819 136.509 382.225 136.334C383.63 136.071 384.948 137.036 385.123 138.439C385.387 139.843 384.421 141.159 383.015 141.334Z" fill="white"/>
<path d="M406.556 137.387C405.151 137.65 403.833 136.685 403.658 135.281C403.394 133.878 404.36 132.562 405.766 132.387C407.171 132.123 408.489 133.088 408.665 134.492C408.84 135.895 407.874 137.124 406.556 137.387Z" fill="white"/>
<path d="M268.824 180.371C267.418 180.634 266.101 179.669 265.925 178.265C265.662 176.862 266.628 175.546 268.033 175.37C269.439 175.107 270.756 176.072 270.932 177.476C271.108 178.879 270.142 180.195 268.824 180.371Z" fill="white"/>
<path d="M292.277 176.423C290.872 176.687 289.554 175.722 289.378 174.318C289.115 172.914 290.081 171.599 291.487 171.423C292.892 171.16 294.21 172.125 294.385 173.529C294.649 174.932 293.683 176.248 292.277 176.423Z" fill="white"/>
<path d="M315.818 172.476C314.413 172.739 313.095 171.774 312.919 170.37C312.656 168.967 313.622 167.651 315.027 167.475C316.433 167.212 317.75 168.177 317.926 169.581C318.102 170.984 317.136 172.3 315.818 172.476Z" fill="white"/>
<path d="M339.271 168.528C337.866 168.792 336.548 167.827 336.372 166.423C336.109 165.019 337.075 163.704 338.481 163.528C339.886 163.265 341.204 164.23 341.379 165.634C341.643 167.037 340.677 168.265 339.271 168.528Z" fill="white"/>
<path d="M362.812 164.581C361.407 164.844 360.089 163.879 359.913 162.475C359.65 161.072 360.616 159.756 362.022 159.58C363.427 159.317 364.745 160.282 364.92 161.686C365.096 163.089 364.13 164.317 362.812 164.581Z" fill="white"/>
<path d="M386.265 160.633C384.86 160.896 383.542 159.931 383.367 158.528C383.103 157.124 384.069 155.808 385.475 155.633C386.88 155.37 388.198 156.334 388.373 157.738C388.637 159.054 387.671 160.37 386.265 160.633Z" fill="white"/>
<path d="M409.807 156.686C408.401 156.949 407.084 155.984 406.908 154.58C406.645 153.177 407.611 151.861 409.016 151.685C410.422 151.422 411.739 152.387 411.915 153.791C412.091 155.107 411.124 156.422 409.807 156.686Z" fill="white"/>
<path d="M272.074 199.67C270.668 199.933 269.351 198.968 269.175 197.565C268.999 196.161 269.878 194.845 271.283 194.67C272.689 194.407 274.006 195.372 274.182 196.775C274.358 198.179 273.479 199.407 272.074 199.67Z" fill="white"/>
<path d="M295.527 195.722C294.122 195.985 292.804 195.02 292.628 193.617C292.365 192.213 293.331 190.897 294.736 190.722C296.142 190.459 297.46 191.424 297.635 192.827C297.899 194.143 296.932 195.459 295.527 195.722Z" fill="white"/>
<path d="M319.068 191.775C317.663 192.038 316.345 191.073 316.169 189.67C315.906 188.266 316.872 186.95 318.278 186.775C319.683 186.512 321.001 187.477 321.176 188.88C321.352 190.196 320.474 191.512 319.068 191.775Z" fill="white"/>
<path d="M342.521 187.827C341.116 188.09 339.798 187.125 339.622 185.722C339.359 184.318 340.325 183.002 341.731 182.827C343.136 182.564 344.454 183.529 344.629 184.932C344.893 186.248 343.927 187.564 342.521 187.827Z" fill="white"/>
<path d="M366.062 183.879C364.657 184.143 363.339 183.178 363.163 181.774C362.988 180.371 363.866 179.055 365.272 178.879C366.677 178.616 367.995 179.581 368.17 180.985C368.346 182.3 367.468 183.616 366.062 183.879Z" fill="white"/>
<path d="M389.516 179.844C388.11 180.107 386.793 179.143 386.617 177.739C386.354 176.335 387.32 175.02 388.725 174.844C390.131 174.581 391.448 175.546 391.624 176.949C391.887 178.353 390.921 179.669 389.516 179.844Z" fill="white"/>
<path d="M413.057 175.897C411.651 176.16 410.334 175.195 410.158 173.792C409.895 172.388 410.861 171.072 412.266 170.897C413.672 170.634 414.989 171.599 415.165 173.002C415.341 174.406 414.462 175.722 413.057 175.897Z" fill="white"/>
<path d="M275.324 218.969C273.918 219.232 272.601 218.267 272.425 216.863C272.162 215.46 273.128 214.144 274.533 213.969C275.939 213.705 277.256 214.67 277.432 216.074C277.608 217.478 276.729 218.706 275.324 218.969Z" fill="white"/>
<path d="M298.777 215.022C297.372 215.285 296.054 214.32 295.878 212.916C295.615 211.513 296.581 210.197 297.986 210.021C299.392 209.758 300.709 210.723 300.885 212.127C301.149 213.443 300.182 214.758 298.777 215.022Z" fill="white"/>
<path d="M322.319 210.986C320.913 211.249 319.596 210.284 319.42 208.881C319.156 207.477 320.123 206.161 321.528 205.986C322.933 205.723 324.251 206.687 324.427 208.091C324.602 209.495 323.724 210.81 322.319 210.986Z" fill="white"/>
<path d="M345.772 207.039C344.366 207.302 343.049 206.337 342.873 204.933C342.609 203.53 343.576 202.214 344.981 202.038C346.387 201.775 347.704 202.74 347.88 204.144C348.143 205.547 347.177 206.863 345.772 207.039Z" fill="white"/>
<path d="M369.313 203.091C367.907 203.354 366.59 202.389 366.414 200.986C366.15 199.582 367.117 198.266 368.522 198.091C369.928 197.828 371.245 198.792 371.421 200.196C371.597 201.6 370.718 202.915 369.313 203.091Z" fill="white"/>
<path d="M392.766 199.144C391.36 199.407 390.043 198.442 389.867 197.038C389.604 195.635 390.57 194.319 391.975 194.143C393.381 193.88 394.698 194.845 394.874 196.249C395.137 197.652 394.171 198.88 392.766 199.144Z" fill="white"/>
<path d="M416.307 195.196C414.901 195.459 413.584 194.494 413.408 193.091C413.145 191.687 414.111 190.371 415.516 190.196C416.922 189.932 418.239 190.897 418.415 192.301C418.591 193.705 417.712 194.933 416.307 195.196Z" fill="white"/>
<path d="M278.574 238.18C277.169 238.443 275.851 237.478 275.676 236.074C275.412 234.671 276.378 233.355 277.784 233.18C279.189 232.916 280.507 233.881 280.683 235.285C280.858 236.688 279.98 238.004 278.574 238.18Z" fill="white"/>
<path d="M302.027 234.232C300.622 234.496 299.304 233.531 299.128 232.127C298.953 230.724 299.831 229.408 301.236 229.232C302.642 228.969 303.959 229.934 304.135 231.338C304.399 232.741 303.432 234.057 302.027 234.232Z" fill="white"/>
<path d="M325.569 230.285C324.163 230.548 322.846 229.583 322.67 228.18C322.406 226.776 323.373 225.46 324.778 225.285C326.183 225.022 327.501 225.987 327.677 227.39C327.852 228.794 326.974 230.022 325.569 230.285Z" fill="white"/>
<path d="M349.022 226.337C347.616 226.601 346.299 225.636 346.123 224.232C345.859 222.829 346.826 221.513 348.231 221.337C349.637 221.074 350.954 222.039 351.13 223.443C351.393 224.758 350.427 226.074 349.022 226.337Z" fill="white"/>
<path d="M372.563 222.39C371.157 222.653 369.84 221.688 369.664 220.285C369.4 218.881 370.367 217.565 371.772 217.39C373.178 217.127 374.495 218.092 374.671 219.495C374.847 220.811 373.968 222.127 372.563 222.39Z" fill="white"/>
<path d="M396.016 218.442C394.61 218.706 393.293 217.741 393.117 216.337C392.854 214.934 393.82 213.618 395.225 213.442C396.631 213.179 397.948 214.144 398.124 215.548C398.387 216.863 397.421 218.179 396.016 218.442Z" fill="white"/>
<path d="M419.557 214.495C418.151 214.758 416.834 213.793 416.658 212.389C416.395 210.986 417.361 209.67 418.766 209.494C420.172 209.231 421.489 210.196 421.665 211.6C421.841 212.916 420.962 214.232 419.557 214.495Z" fill="white"/>
<path d="M281.824 257.479C280.419 257.742 279.101 256.777 278.925 255.374C278.662 253.97 279.628 252.654 281.033 252.479C282.439 252.216 283.756 253.181 283.932 254.584C284.108 255.9 283.229 257.216 281.824 257.479Z" fill="white"/>
<path d="M305.365 253.531C303.959 253.794 302.642 252.83 302.466 251.426C302.203 250.022 303.169 248.707 304.574 248.531C305.98 248.268 307.297 249.233 307.473 250.636C307.649 251.952 306.683 253.268 305.365 253.531Z" fill="white"/>
<path d="M328.819 249.584C327.413 249.847 326.096 248.882 325.92 247.478C325.656 246.075 326.623 244.759 328.028 244.583C329.433 244.32 330.751 245.285 330.927 246.689C331.102 248.005 330.224 249.32 328.819 249.584Z" fill="white"/>
<path d="M352.36 245.636C350.954 245.899 349.637 244.934 349.461 243.531C349.197 242.127 350.164 240.812 351.569 240.636C352.974 240.373 354.292 241.338 354.468 242.741C354.643 244.057 353.677 245.373 352.36 245.636Z" fill="white"/>
<path d="M375.813 241.601C374.407 241.864 373.09 240.899 372.914 239.496C372.65 238.092 373.617 236.776 375.022 236.601C376.428 236.338 377.745 237.303 377.921 238.706C378.097 240.11 377.218 241.426 375.813 241.601Z" fill="white"/>
<path d="M399.354 237.653C397.949 237.917 396.631 236.952 396.455 235.548C396.192 234.144 397.158 232.829 398.564 232.653C399.969 232.39 401.287 233.355 401.462 234.759C401.638 236.162 400.672 237.478 399.354 237.653Z" fill="white"/>
<path d="M422.807 233.706C421.402 233.969 420.084 233.004 419.909 231.601C419.645 230.197 420.611 228.881 422.017 228.706C423.422 228.443 424.74 229.408 424.915 230.811C425.091 232.215 424.213 233.531 422.807 233.706Z" fill="white"/>
<path d="M175.361 351.78C169.3 351.78 164.294 347.043 163.942 340.99L158.672 247.478C158.32 241.162 163.152 235.723 169.476 235.372L198.024 233.793C198.99 233.705 199.517 233.091 199.781 232.477C200.044 231.688 199.869 230.986 199.254 230.372C195.828 227.126 193.808 222.828 193.544 218.354C192.929 207.739 202.24 198.529 214.362 197.915C214.802 197.915 215.329 197.915 215.768 197.915C227.275 197.915 236.762 205.81 237.289 215.985C237.552 220.459 235.971 224.933 232.984 228.53C232.457 229.144 232.37 229.933 232.721 230.635C232.984 231.161 233.599 231.775 234.478 231.775H234.566L263.114 230.196C263.289 230.196 263.553 230.196 263.728 230.196C269.789 230.196 274.796 234.933 275.148 240.986L276.729 268.97C276.817 270.11 277.783 270.812 278.661 270.812C279.013 270.812 279.54 270.724 279.979 270.286C283.229 267.128 287.182 265.285 291.486 265.022C291.837 265.022 292.101 265.022 292.452 265.022C302.729 265.022 311.338 274.145 311.953 285.813C312.304 291.602 310.635 297.216 307.209 301.515C303.783 305.901 299.04 308.445 293.945 308.708C293.594 308.708 293.33 308.708 292.979 308.708C289.026 308.708 285.161 307.392 281.911 304.761C281.56 304.497 281.121 304.322 280.769 304.322C280.242 304.322 279.715 304.585 279.364 304.936C279.1 305.199 278.837 305.726 278.837 306.427L280.418 334.411C280.594 337.481 279.54 340.376 277.519 342.657C275.499 344.938 272.688 346.253 269.614 346.429L175.976 351.692C175.801 351.78 175.625 351.78 175.361 351.78Z" fill="#9FBFFF"/>
<path d="M215.768 198.529C226.835 198.529 236.059 206.073 236.673 215.986C236.937 220.459 235.356 224.67 232.457 228.091C231.052 229.758 232.281 232.39 234.477 232.39C234.565 232.39 234.565 232.39 234.653 232.39L263.201 230.811C263.377 230.811 263.64 230.811 263.816 230.811C269.526 230.811 274.269 235.284 274.62 240.986L276.201 268.97C276.289 270.461 277.519 271.426 278.837 271.426C279.452 271.426 280.066 271.163 280.593 270.724C283.58 267.83 287.445 265.9 291.661 265.724C292.013 265.724 292.276 265.724 292.628 265.724C302.553 265.724 310.898 274.584 311.513 285.9C312.128 297.567 304.398 307.568 294.121 308.094C293.769 308.094 293.506 308.094 293.155 308.094C289.202 308.094 285.512 306.691 282.526 304.322C281.999 303.971 281.472 303.796 280.945 303.796C279.539 303.796 278.222 304.936 278.31 306.603L279.891 334.586C280.242 340.551 275.674 345.639 269.701 345.99L176.064 351.254C175.888 351.254 175.625 351.254 175.449 351.254C169.739 351.254 164.996 346.78 164.645 341.078L159.374 247.566C159.023 241.601 163.591 236.513 169.564 236.162L198.112 234.583C200.396 234.495 201.45 231.688 199.781 230.109C196.531 227.039 194.51 223.003 194.247 218.529C193.632 208.266 202.679 199.406 214.45 198.704C214.889 198.616 215.328 198.529 215.768 198.529ZM215.768 197.213C215.328 197.213 214.801 197.213 214.362 197.213C208.389 197.564 202.855 199.932 198.814 203.88C194.774 207.915 192.666 213.003 192.929 218.354C193.193 223.003 195.301 227.389 198.902 230.811C199.429 231.337 199.254 232.039 199.254 232.214C199.166 232.39 198.902 233.004 198.112 233.091L169.564 234.67C162.888 235.021 157.793 240.811 158.145 247.39L163.415 340.902C163.766 347.306 169.125 352.306 175.537 352.306C175.8 352.306 175.976 352.306 176.24 352.306L269.877 347.043C273.127 346.868 276.114 345.464 278.222 343.008C280.33 340.552 281.472 337.481 281.296 334.235L279.715 306.252C279.715 305.813 279.891 305.462 280.066 305.287C280.33 305.024 280.681 304.848 281.033 304.848C281.296 304.848 281.56 304.936 281.823 305.112C285.249 307.743 289.202 309.147 293.33 309.147C293.682 309.147 294.033 309.147 294.296 309.147C299.655 308.884 304.574 306.164 308.087 301.69C311.601 297.217 313.358 291.515 313.006 285.549C312.304 273.531 303.432 264.145 292.803 264.145C292.452 264.145 292.1 264.145 291.837 264.145C287.357 264.408 283.229 266.251 279.891 269.584C279.539 269.847 279.276 269.935 279.012 269.935C278.397 269.935 277.783 269.496 277.695 268.707L276.114 240.723C275.762 234.32 270.404 229.319 263.992 229.319C263.728 229.319 263.553 229.319 263.289 229.319L234.741 230.898H234.653C233.863 230.898 233.599 230.284 233.511 230.109C233.423 229.846 233.248 229.319 233.687 228.705C236.849 224.933 238.43 220.372 238.167 215.722C237.376 205.459 227.626 197.213 215.768 197.213Z" fill="white"/>
<path d="M107.725 334.674L82.8659 332.832L74.6968 333.709L74.8725 364.588C74.8725 365.377 75.4873 365.991 76.2779 365.991C76.8928 365.991 77.4198 365.64 77.5955 365.114L83.92 351.341L109.833 354.412" fill="#FFAD8A"/>
<path d="M75.2239 367.307C76.278 366.956 77.4199 366.342 77.6835 365.816L84.0079 351.166C80.7579 343.096 83.2174 332.657 83.2174 332.657L72.1495 331.955C71.7982 331.955 71.5347 332.218 71.5347 332.657L71.7103 367.132C71.7103 367.834 75.1361 367.307 75.2239 367.307Z" fill="#2E7EFA"/>
<path d="M83.3051 354.324C82.2511 353.535 81.1092 352.833 79.8794 352.307" stroke="#1A3987" stroke-width="0.75" stroke-miterlimit="10" stroke-linejoin="round"/>
<path d="M82.2512 356.167C81.1093 355.289 80.4066 354.939 79.2646 354.5" stroke="#1A3987" stroke-width="0.75" stroke-miterlimit="10" stroke-linejoin="round"/>
<path d="M81.3729 357.746C80.5824 357.131 79.5283 356.605 78.6499 356.167" stroke="#1A3987" stroke-width="0.75" stroke-miterlimit="10" stroke-linejoin="round"/>
<path d="M73.9067 332.13L74.0824 367.483" stroke="#1A3987" stroke-width="0.75" stroke-miterlimit="10" stroke-linejoin="round"/>
<path d="M79.1767 332.394C79.1767 332.394 79.0889 340.552 73.9941 341.341" stroke="#1A3987" stroke-width="0.75" stroke-miterlimit="10" stroke-linejoin="round"/>
<path d="M78.9132 362.834C78.9132 362.834 75.5753 360.465 73.9941 360.026" stroke="#1A3987" stroke-width="0.75" stroke-miterlimit="10" stroke-linejoin="round"/>
<path d="M151.206 283.707C151.557 284.497 156.213 317.217 159.551 340.113C161.659 354.412 161.922 363.447 141.016 361.78C112.293 359.412 92.2652 358.096 92.2652 358.096L91.5625 332.393L131.003 334.235L125.82 308.796C125.82 308.796 116.246 296.076 123.273 281.514" fill="#22252D"/>
<path d="M95.7793 332.568L96.8334 358.096" stroke="#4C3F89" stroke-width="0.75" stroke-miterlimit="10"/>
<path d="M144.267 300.638L151.206 340.902C151.382 342.043 150.415 342.92 149.361 342.92L91.7383 339.411" stroke="#4C3F89" stroke-width="0.75" stroke-miterlimit="10"/>
<path d="M180.984 331.34L175.714 356.166L175.538 364.324L207.512 364.148C208.302 364.148 208.917 363.534 208.917 362.745C208.917 362.131 208.566 361.604 208.039 361.429L194.248 355.113L200.748 329.235" fill="#FFAD8A"/>
<path d="M210.322 363.798C209.971 362.745 209.356 361.605 208.829 361.341L194.16 355.025C186.078 358.271 175.625 355.815 175.625 355.815L173.781 366.78C173.781 367.131 174.044 367.394 174.483 367.394L210.146 367.219C210.761 367.307 210.322 363.798 210.322 363.798Z" fill="#2E7EFA"/>
<path d="M197.322 355.727C196.531 356.78 195.828 357.92 195.301 359.148" stroke="#1A3987" stroke-width="0.75" stroke-miterlimit="10" stroke-linejoin="round"/>
<path d="M199.167 356.78C198.288 357.92 197.937 358.622 197.498 359.762" stroke="#1A3987" stroke-width="0.75" stroke-miterlimit="10" stroke-linejoin="round"/>
<path d="M200.66 357.569C200.045 358.358 199.518 359.411 199.079 360.288" stroke="#1A3987" stroke-width="0.75" stroke-miterlimit="10" stroke-linejoin="round"/>
<path d="M173.956 365.113L210.41 364.938" stroke="#1A3987" stroke-width="0.75" stroke-miterlimit="10" stroke-linejoin="round"/>
<path d="M175.01 359.762C175.01 359.762 183.619 359.938 184.321 365.113" stroke="#1A3987" stroke-width="0.75" stroke-miterlimit="10" stroke-linejoin="round"/>
<path d="M205.754 360.113C205.754 360.113 203.383 363.447 202.943 365.026" stroke="#1A3987" stroke-width="0.75" stroke-miterlimit="10" stroke-linejoin="round"/>
<path d="M164.47 276.163L166.314 283.356C166.578 284.409 167.456 285.111 168.598 285.111H193.369C199.43 285.111 205.842 285.286 209.268 290.55C212.079 294.848 211.113 302.041 208.741 310.287C206.721 317.393 199.518 349.499 199.518 349.499H174.044L181.247 311.077H151.821C151.821 311.077 132.759 311.252 135.395 292.216" fill="#22252D"/>
<path d="M174.747 345.464H200.221" stroke="#4C3F89" stroke-width="0.75" stroke-miterlimit="10"/>
<path d="M155.334 310.989H151.821C151.821 310.989 133.55 310.989 133.375 292.128" stroke="#4C3F89" stroke-width="0.75" stroke-miterlimit="10"/>
<path d="M153.314 282.304C153.314 282.304 153.753 303.62 171.76 303.62H185.288C186.957 303.62 188.186 305.199 187.835 306.778L178.963 349.324" stroke="#4C3F89" stroke-width="0.75" stroke-miterlimit="10"/>
<path d="M155.071 291.164C155.247 291.515 162.626 289.497 162.45 282.304" stroke="#4C3F89" stroke-width="0.75" stroke-miterlimit="10"/>
<path d="M139.523 294.146C139.523 294.146 143.388 294.146 146.902 293.093" stroke="#4C3F89" stroke-width="0.75" stroke-miterlimit="10"/>
<path d="M120.813 294.146C120.813 294.146 124.415 294.234 127.138 294.146" stroke="#4C3F89" stroke-width="0.75" stroke-miterlimit="10"/>
<path d="M142.597 205.108C142.597 205.108 151.381 177.827 167.807 155.808L156.564 148.966C138.82 168.177 127.137 200.371 127.137 200.371" fill="#FFAD8A"/>
<path d="M120.286 251.513C120.286 251.513 116.597 217.828 130.563 189.494L146.989 194.845L142.685 216.424" fill="#0070E4"/>
<path d="M129.246 192.739L145.409 198.266" stroke="white" stroke-width="0.75" stroke-miterlimit="10"/>
<path d="M165.436 158.966C168.071 154.931 177.646 144.492 177.206 143.615C176.767 142.738 173.341 146.334 173.078 145.545C172.814 144.755 177.733 138.79 177.031 138.088C176.064 137.036 171.409 143.44 171.409 143.44C171.409 143.44 176.152 136.246 175.098 135.544C174.308 135.106 170.443 140.457 168.686 142.299C170.355 140.018 172.551 136.071 171.76 135.632C170.97 135.194 168.247 138.79 165.963 141.422C167.193 139.667 169.301 136.334 168.598 135.808C167.895 135.369 158.76 145.019 151.557 154.843" fill="#FFAD8A"/>
<path d="M153.402 242.916C153.402 242.916 170.179 249.32 182.477 250.11C198.639 251.162 217.437 245.109 217.437 245.109C217.437 245.109 219.897 231.863 213.484 232.477C205.491 233.969 191.788 234.934 181.423 233.706C174.923 232.916 161.22 225.547 161.22 225.547" fill="#FFAD8A"/>
<path d="M209.883 233.267C214.714 232.653 228.241 228.53 228.856 229.32C229.471 230.109 224.64 231.601 225.255 232.215C225.87 232.741 233.336 230.987 233.687 231.864C234.214 233.18 226.397 234.583 226.397 234.583C226.397 234.583 235.005 233.443 235.093 234.671C235.181 235.548 228.681 236.776 226.221 237.566C228.944 237.039 233.512 236.776 233.6 237.653C233.687 238.531 229.208 239.496 225.87 240.373C227.978 240.022 231.931 239.583 232.018 240.461C232.106 241.338 221.566 244.233 211.464 246.689" fill="#FFAD8A"/>
<path d="M136.097 211.249L133.813 222.741C133.813 222.741 140.314 229.232 147.077 223.179L146.989 215.46L136.097 211.249Z" fill="#FFAD8A"/>
<path d="M148.307 200.459C148.307 200.459 153.841 211.512 150.415 215.108C148.658 217.038 146.023 217.74 143.739 215.986C141.982 214.67 135.307 206.775 136.273 205.283C139.699 199.494 148.307 200.459 148.307 200.459Z" fill="#FFAD8A"/>
<path d="M150.503 206.6C150.503 206.6 152.523 208.617 152.523 209.933C152.523 210.547 150.503 210.635 150.503 210.635" fill="#FFAD8A"/>
<path d="M150.415 211.775L146.813 211.249C146.638 212.653 149.361 215.986 150.415 211.775Z" fill="white"/>
<path d="M147.78 206.425C147.78 206.513 147.78 206.6 147.78 206.688C147.78 206.776 147.78 206.863 147.78 206.951C147.78 207.039 147.78 207.127 147.868 207.127C147.868 207.127 147.868 207.214 147.955 207.214L148.043 207.302C148.131 207.39 148.131 207.39 148.219 207.39C148.395 207.477 148.57 207.302 148.57 207.214C148.57 207.127 148.57 207.127 148.57 207.039V206.951C148.57 206.863 148.483 206.863 148.483 206.776V206.863C148.395 206.776 148.395 206.6 148.395 206.513V206.6C148.395 206.513 148.395 206.513 148.395 206.425V206.337C148.395 206.249 148.219 206.162 148.131 206.162C147.955 206.249 147.78 206.337 147.78 206.425Z" fill="#00276F"/>
<path d="M146.111 205.81C146.463 205.196 147.165 204.845 147.78 204.757C148.044 204.757 148.395 204.757 148.659 204.933" stroke="#00276F" stroke-width="0.5" stroke-miterlimit="10" stroke-linecap="round" stroke-linejoin="round"/>
<path d="M134.955 201.249C135.57 197.301 139.523 196.512 146.989 197.652C147.955 197.828 149.8 197.301 150.239 198.179C150.766 199.407 150.678 201.775 149.361 202.74C148.219 203.617 146.726 203.091 145.496 203.617C143.476 204.319 144.53 206.249 143.388 207.653C141.631 210.021 142.773 213.442 139.874 215.197C138.205 216.249 136.097 215.899 134.165 215.548C133.901 215.548 133.725 215.46 133.462 215.285C132.847 214.758 133.11 213.004 132.847 212.214C132.232 209.758 131.881 207.126 132.144 204.582C132.32 202.389 134.077 200.986 134.955 201.249Z" fill="#0B0B3A"/>
<path d="M143.388 208.179C143.037 205.898 141.28 206.687 140.665 207.477C139.875 208.53 141.104 211.074 141.719 211.512C143.037 212.477 144.091 212.477 144.354 211.337" fill="#FFAD8A"/>
<path d="M146.814 217.127C144.354 216.337 142.773 215.109 142.773 215.109" stroke="#FFAD8A" stroke-width="0.75" stroke-miterlimit="10" stroke-linejoin="round"/>
<path d="M133.725 219.319C133.725 219.319 123.712 223.53 120.637 239.408C119.232 246.426 121.867 284.234 121.867 284.234C143.564 288.445 166.929 282.216 166.929 282.216C166.929 282.216 164.294 257.566 163.064 248.268C160.253 226.863 145.496 220.021 145.496 220.021L133.725 219.319Z" fill="#0070E4"/>
<path d="M145.409 219.934C145.409 219.934 153.753 221.249 159.112 223.793C164.47 226.337 176.504 232.215 176.504 232.215L170.267 249.321L148.395 242.391" fill="#0070E4"/>
<path d="M162.801 246.688L150.503 243.092" stroke="white" stroke-width="0.75" stroke-miterlimit="10"/>
<path d="M172.814 230.372L166.929 248.004" stroke="white" stroke-width="0.75" stroke-miterlimit="10"/>
<path d="M121.691 281.514C121.691 281.514 142.861 284.672 166.578 279.848" stroke="white" stroke-width="0.75" stroke-miterlimit="10"/>
<path d="M458.382 329.06L463.653 353.885L462.774 362.044L431.855 361.868C431.064 361.868 430.449 361.254 430.449 360.465C430.449 359.85 430.801 359.324 431.328 359.149L445.119 352.833L438.618 326.955" fill="#FFAD8A"/>
<path d="M429.044 361.517C429.395 360.464 430.01 359.324 430.537 359.061L445.206 352.745C453.288 355.99 463.741 353.534 463.741 353.534L464.531 364.499C464.531 364.85 464.268 365.114 463.828 365.114L429.307 364.938C428.605 365.114 429.044 361.605 429.044 361.517Z" fill="#18277A"/>
<path d="M442.044 353.446C442.835 354.499 443.538 355.639 444.065 356.867" stroke="#5565AA" stroke-width="0.75" stroke-miterlimit="10"/>
<path d="M440.2 354.587C441.078 355.727 441.429 356.429 441.869 357.57" stroke="#5565AA" stroke-width="0.75" stroke-miterlimit="10"/>
<path d="M438.706 355.376C439.321 356.166 439.848 357.219 440.287 358.096" stroke="#5565AA" stroke-width="0.75" stroke-miterlimit="10"/>
<path d="M464.355 362.92L428.956 362.657" stroke="#5565AA" stroke-width="0.75" stroke-miterlimit="10"/>
<path d="M464.005 357.658C464.005 357.658 455.835 357.745 455.045 362.833" stroke="#5565AA" stroke-width="0.75" stroke-miterlimit="10"/>
<path d="M433.611 357.833C433.611 357.833 435.983 361.166 436.422 362.745" stroke="#5565AA" stroke-width="0.75" stroke-miterlimit="10"/>
<path d="M447.315 238.881C447.315 238.881 427.551 283.093 428.605 298.708C429.571 313.27 440.639 350.201 440.639 350.201L464.356 345.815C464.356 345.815 453.024 300.199 453.639 295.462C454.254 290.725 468.748 258.268 468.748 258.268C468.748 258.268 474.369 250.636 472.437 237.478" fill="#2E7EFA"/>
<path d="M460.402 346.605C460.402 346.605 449.335 300.55 449.95 295.813C450.564 291.076 464.267 259.233 464.267 259.233" stroke="#1A3987" stroke-width="0.75" stroke-miterlimit="10" stroke-linejoin="round"/>
<path d="M463.302 341.517L439.497 346.341" stroke="#1A3987" stroke-width="0.75" stroke-miterlimit="10" stroke-linejoin="round"/>
<path d="M492.727 317.48L503.795 340.639L506.518 348.358L478.41 361.341C477.707 361.692 476.828 361.341 476.565 360.639C476.301 360.113 476.389 359.499 476.828 359.061L486.667 347.481L474.018 323.971" fill="#FFAD8A"/>
<path d="M475.686 362.131C475.511 361.078 475.599 359.762 476.038 359.236L486.579 347.306C495.275 346.867 503.707 340.2 503.707 340.2L509.066 349.85C509.241 350.201 509.066 350.551 508.714 350.727L477.355 365.201C476.74 365.552 475.686 362.219 475.686 362.131Z" fill="#18277A"/>
<path d="M484.031 349.324C485.261 349.938 486.315 350.727 487.369 351.605" stroke="#5565AA" stroke-width="0.75" stroke-miterlimit="10"/>
<path d="M482.802 351.078C484.032 351.779 484.646 352.218 485.613 353.008" stroke="#5565AA" stroke-width="0.75" stroke-miterlimit="10"/>
<path d="M481.748 352.481C482.626 352.92 483.592 353.709 484.295 354.235" stroke="#5565AA" stroke-width="0.75" stroke-miterlimit="10"/>
<path d="M508.188 348.446L476.038 363.271" stroke="#5565AA" stroke-width="0.75" stroke-miterlimit="10"/>
<path d="M505.728 343.797C505.728 343.797 498.349 347.306 499.843 352.306" stroke="#5565AA" stroke-width="0.75" stroke-miterlimit="10"/>
<path d="M478.234 356.868C478.234 356.868 481.835 358.885 482.889 360.113" stroke="#5565AA" stroke-width="0.75" stroke-miterlimit="10"/>
<path d="M462.95 240.197C462.95 240.197 455.396 281.953 458.997 297.217C462.95 314.322 480.166 343.271 480.166 343.271L501.599 332.657C501.599 332.657 483.153 297.48 483.153 289.848C483.153 285.111 487.369 255.812 487.369 255.812C487.369 255.812 491.586 247.302 487.457 234.67" fill="#2E7EFA"/>
<path d="M496.593 335.113C496.593 335.113 478.146 300.726 478.146 290.901C478.146 286.164 481.045 263.97 482.363 256.864C483.68 249.759 486.228 241.513 482.451 235.723" stroke="#1A3987" stroke-width="0.75" stroke-miterlimit="10" stroke-linejoin="round"/>
<path d="M458.031 283.005C459.173 271.251 460.491 255.548 462.248 241.513" stroke="#1A3987" stroke-width="0.75" stroke-miterlimit="10" stroke-linejoin="round"/>
<path d="M474.896 241.513C474.896 241.513 476.39 245.109 484.207 247.215" stroke="#1A3987" stroke-width="0.75" stroke-miterlimit="10" stroke-linejoin="round"/>
<path d="M458.91 242.39C458.91 242.39 457.768 250.987 458.382 252.127C458.734 252.654 461.193 253.092 461.193 253.092" stroke="#1A3987" stroke-width="0.75" stroke-miterlimit="10" stroke-linejoin="round"/>
<path d="M444.328 245.723C444.328 245.723 449.071 245.811 451.795 242.829" stroke="#1A3987" stroke-width="0.75" stroke-miterlimit="10" stroke-linejoin="round"/>
<path d="M499.579 328.972L477.971 339.411" stroke="#1A3987" stroke-width="0.75" stroke-miterlimit="10" stroke-linejoin="round"/>
<path d="M453.902 176.16C453.902 176.16 444.943 178.704 443.625 195.985C442.395 203.09 445.382 242.302 445.382 242.302C467.166 246.075 490.356 239.32 490.356 239.32C490.356 239.32 486.315 214.758 484.734 205.459C480.869 182.213 464.795 177.3 464.795 177.3L453.902 176.16Z" fill="#18277A"/>
<path d="M457.68 176.335C457.68 176.335 452.41 167.036 444.153 157.825C433.348 145.807 417.01 135.719 417.01 135.719C417.01 135.719 405.942 143.439 411.037 147.562C417.713 152.123 426.321 161.071 432.821 169.229C436.862 174.317 445.119 189.844 445.119 189.844" fill="#FFAD8A"/>
<path d="M414.111 149.579C410.246 146.684 397.597 140.193 397.773 139.14C397.948 138.175 402.34 140.368 402.34 139.579C402.34 138.789 395.665 134.842 396.104 133.877C396.631 132.561 403.219 136.947 403.219 136.947C403.219 136.947 396.279 131.772 397.07 130.807C397.597 130.105 403.131 133.789 405.415 134.93C403.131 133.351 399.617 130.456 400.232 129.754C400.847 129.052 404.624 131.508 407.611 133.175C405.854 131.947 402.692 129.491 403.219 128.789C403.746 128.087 413.408 133 422.544 139.316" fill="#FFAD8A"/>
<path d="M474.194 205.02C474.194 205.02 466.112 221.073 457.504 229.933C446.26 241.6 428.341 249.759 428.341 249.759C428.341 249.759 417.537 241.6 422.807 237.741C429.659 233.442 440.551 224.933 447.315 217.038C451.531 212.126 458.382 196.687 458.382 196.687" fill="#FFAD8A"/>
<path d="M425.969 235.811C422.016 238.53 409.192 244.671 409.28 245.635C409.368 246.6 413.935 244.495 413.847 245.372C413.76 246.162 406.996 249.846 407.347 250.811C407.874 252.127 414.55 248.004 414.55 248.004C414.55 248.004 407.435 252.916 408.138 253.881C408.665 254.583 414.287 251.074 416.57 250.022C414.199 251.513 410.685 254.32 411.212 255.022C411.739 255.724 415.692 253.443 418.766 251.864C416.922 253.004 413.76 255.373 414.287 256.074C414.814 256.776 424.564 251.864 433.699 246.864" fill="#FFAD8A"/>
<path d="M458.031 192.563C455.747 200.108 449.862 212.652 449.862 212.652L466.024 221.161C466.024 221.161 474.369 210.985 477.531 198.88" fill="#18277A"/>
<path d="M466.024 221.161C466.024 221.161 475.072 208.529 476.653 201.774" stroke="#5565AA" stroke-width="0.75" stroke-miterlimit="10"/>
<path d="M449.862 212.652C449.862 212.652 455.835 201.072 457.152 195.458" stroke="#5565AA" stroke-width="0.75" stroke-miterlimit="10"/>
<path d="M443.362 201.072C443.186 194.756 440.111 181.598 431.064 169.492L445.294 158.088C445.294 158.088 457.855 168.089 461.369 176.949" fill="#18277A"/>
<path d="M451.092 158C451.092 158 447.49 168.088 450.652 171.334C452.321 173.001 457.328 173.352 459.437 171.685C461.018 170.457 463.301 162.65 462.423 161.334C459.085 156.07 451.092 158 451.092 158Z" fill="#FFAD8A"/>
<path d="M453.112 162.737C453.112 162.737 451.18 165.106 451.268 165.808C451.355 166.509 453.024 166.773 453.024 166.773" stroke="#FFAD8A" stroke-width="0.5" stroke-miterlimit="10" stroke-linejoin="round"/>
<path d="M451.092 167.562L455.66 168.702C455.66 168.702 454.518 170.983 452.058 170.194C450.301 169.58 451.092 167.562 451.092 167.562Z" fill="white"/>
<path d="M451.356 161.685C451.356 161.773 451.268 161.773 451.268 161.861C451.268 161.948 451.18 161.948 451.18 162.036C451.092 162.124 451.092 162.299 451.004 162.387C451.004 162.475 451.004 162.475 451.004 162.562C451.004 162.65 451.004 162.65 451.004 162.65C451.004 162.65 451.004 162.738 451.092 162.738L451.18 162.826C451.268 162.826 451.356 162.826 451.444 162.826C451.531 162.826 451.619 162.738 451.619 162.65C451.619 162.562 451.707 162.475 451.707 162.387C451.707 162.299 451.707 162.299 451.795 162.212C451.795 162.124 451.795 162.124 451.883 162.036C451.883 161.948 451.883 161.948 451.883 161.861C451.883 161.685 451.883 161.597 451.707 161.51C451.531 161.51 451.444 161.597 451.356 161.685Z" fill="#00276F"/>
<path d="M452.936 160.808C452.936 160.808 452.322 159.755 451.18 160.369" stroke="#00276F" stroke-width="0.5" stroke-miterlimit="10" stroke-linecap="round" stroke-linejoin="round"/>
<path d="M456.45 163.527C456.45 163.615 456.362 163.702 456.362 163.702C456.362 163.79 456.362 163.79 456.274 163.878C456.274 163.966 456.186 164.053 456.186 164.141C456.186 164.229 456.186 164.317 456.186 164.404C456.186 164.492 456.274 164.58 456.362 164.58C456.45 164.58 456.537 164.58 456.625 164.58C456.625 164.58 456.713 164.58 456.713 164.492C456.713 164.492 456.801 164.404 456.801 164.317C456.801 164.229 456.889 164.141 456.889 164.053C456.889 163.966 456.889 163.966 456.889 163.878C456.889 163.79 456.889 163.79 456.889 163.702C456.889 163.615 456.889 163.527 456.889 163.439C456.889 163.352 456.801 163.352 456.713 163.352C456.625 163.352 456.537 163.352 456.537 163.352C456.537 163.352 456.537 163.439 456.45 163.527Z" fill="#00276F"/>
<path d="M456.45 161.772C456.45 161.772 457.592 161.509 458.646 163" stroke="#00276F" stroke-width="0.5" stroke-miterlimit="10" stroke-linecap="round" stroke-linejoin="round"/>
<path d="M462.775 167.211L464.795 177.3C464.795 177.3 457.153 183.001 452.936 176.949L452.849 170.369L462.775 167.211Z" fill="#FFAD8A"/>
<path d="M466.464 165.457C466.552 165.106 466.64 164.755 466.815 164.404C467.079 163.527 467.606 162.825 467.957 161.948C468.66 160.281 468.045 158.176 466.64 157.035C466.376 156.86 466.113 156.685 465.849 156.421C465.322 155.895 465.146 155.193 464.883 154.491C464.619 153.965 464.268 153.439 463.741 153.176C462.511 152.562 460.93 153.439 459.788 152.737C459.525 152.562 459.349 152.386 459.085 152.211C457.416 150.895 455.396 151.246 453.551 151.86C452.673 152.211 452.41 152.562 451.707 153.088C450.916 153.702 449.774 153.702 448.984 154.228C448.105 154.842 447.93 156.07 447.93 157.035C447.93 157.386 447.93 157.825 448.105 158.176C448.281 158.614 448.72 158.965 449.159 159.141C450.214 159.667 451.443 159.404 452.585 159.316C453.727 159.228 454.957 158.439 456.099 158.878C457.153 159.228 457.416 160.544 458.734 160.632C459.261 160.632 459.876 160.544 460.139 160.983C460.491 161.422 460.315 162.211 460.579 162.737C460.842 163.264 461.281 163.702 461.633 164.141C462.248 165.106 463.214 165.72 462.862 166.948C462.599 167.825 461.721 169.141 462.072 170.018C462.335 170.632 463.653 170.632 464.619 169.843C465.673 169.053 465.937 167.562 466.2 166.422C466.288 166.334 466.288 165.895 466.464 165.457Z" fill="#212237"/>
<path d="M461.809 165.72C462.775 164.141 463.741 164.316 464.268 165.018C465.059 165.983 464.005 168.351 463.39 168.79C462.248 169.667 461.194 169.755 460.93 168.702" fill="#FFAD8A"/>
<path d="M453.2 172.826C456.802 172.913 459.876 171.247 459.876 171.247" stroke="#FFAD8A" stroke-width="0.75" stroke-miterlimit="10" stroke-linejoin="round"/>
<path d="M443.186 198.792C443.186 198.792 443.45 188.967 442.308 185.896" stroke="#5565AA" stroke-width="0.75" stroke-miterlimit="10"/>
<path d="M451.971 178.791C451.971 178.791 453.727 181.949 458.647 181.774C464.18 181.686 466.376 178.001 466.376 178.001" stroke="#5565AA" stroke-width="0.75" stroke-miterlimit="10"/>
<path d="M356.4 126.596C355.873 131.245 352.359 142.035 353.062 142.473C353.764 142.912 355.346 138.789 355.873 139.228C356.4 139.666 354.555 145.982 355.346 146.246C356.4 146.596 357.893 140.368 357.893 140.368C357.893 140.368 356.751 147.211 357.717 147.298C358.42 147.386 359.738 142.386 360.265 140.456C359.913 142.561 359.386 145.982 360.177 145.982C360.967 145.982 361.846 143.088 362.461 140.456C362.197 142.123 361.407 145.456 362.109 145.544C362.812 145.632 365.359 138.087 367.028 128.613" fill="#FFAD8A"/>
<path d="M370.103 79.2256C373.441 103.876 366.15 133.438 366.15 133.438L355.961 131.245C355.961 131.245 359.738 104.577 355.521 81.0678" fill="#FFAD8A"/>
<path d="M348.583 57.2949C353.414 57.2949 358.421 58.8739 362.813 62.2951C369.576 67.6462 371.333 79.9273 371.333 79.9273L355.258 83.1731C355.258 83.1731 354.38 72.8218 354.292 69.3129" fill="#22252D"/>
<path d="M354.731 83.1731C354.204 78.4361 352.799 74.1377 352.799 74.1377" stroke="#A52F2D" stroke-width="0.75" stroke-miterlimit="10"/>
<path d="M480.591 69.4704L475.285 50.0024L455.791 55.3007L461.096 74.7687L480.591 69.4704Z" stroke="#91ABE5" stroke-width="1.5" stroke-miterlimit="10"/>
<path d="M23.4648 288.047L24.7056 278.212L14.8571 276.973L13.6163 286.808L23.4648 288.047Z" stroke="#91ABE5" stroke-width="1.5" stroke-miterlimit="10"/>
<path d="M520.75 296.032C521.38 291.668 518.349 287.621 513.979 286.992C509.609 286.363 505.556 289.39 504.926 293.754C504.296 298.118 507.328 302.165 511.698 302.794C516.067 303.424 520.12 300.396 520.75 296.032Z" stroke="#B2CDED" stroke-width="1.5" stroke-miterlimit="10"/>
<path d="M198.552 21.5045C198.552 23.6975 196.795 25.5397 194.511 25.5397C192.228 25.5397 190.471 23.7853 190.471 21.5045C190.471 19.3114 192.228 17.4692 194.511 17.4692C196.795 17.4692 198.552 19.3114 198.552 21.5045Z" stroke="#91ABE5" stroke-width="1.5" stroke-miterlimit="10"/>
<path d="M530.236 197.564C530.236 199.757 528.479 201.599 526.195 201.599C523.999 201.599 522.154 199.844 522.154 197.564C522.154 195.37 523.911 193.528 526.195 193.528C528.391 193.616 530.236 195.37 530.236 197.564Z" stroke="#91ABE5" stroke-width="1.5" stroke-miterlimit="10"/>
<path d="M534.188 280.023C534.188 282.216 532.431 284.058 530.148 284.058C527.952 284.058 526.107 282.304 526.107 280.023C526.107 277.83 527.864 275.988 530.148 275.988C532.431 276.076 534.188 277.83 534.188 280.023Z" stroke="#91ABE5" stroke-width="1.5" stroke-miterlimit="10"/>
<path d="M9.69602 251.074C9.69602 253.267 7.93922 255.11 5.65538 255.11C3.45939 255.11 1.61475 253.355 1.61475 251.074C1.61475 248.794 3.37155 247.039 5.65538 247.039C7.85138 247.039 9.69602 248.881 9.69602 251.074Z" stroke="#B2CDED" stroke-width="1.5" stroke-miterlimit="10"/>
<path d="M106.408 36.2417L106.847 38.8734C107.023 40.0138 108.077 40.891 109.307 40.891H111.064C112.293 40.891 113.26 41.7682 113.523 42.9086L113.787 44.6631C113.962 45.8035 115.017 46.6807 116.246 46.6807H118.003C119.233 46.6807 120.199 47.5579 120.463 48.6983L120.726 50.4527C120.902 51.5931 121.956 52.4704 123.186 52.4704H125.294" stroke="#91ABE5" stroke-width="1.5" stroke-miterlimit="10"/>
<path d="M29.6358 211.073L28.8453 208.529C28.4939 207.388 27.352 206.687 26.1222 206.95L24.3654 207.301C23.2235 207.476 21.9938 206.774 21.6424 205.722L21.1154 204.055C20.764 202.914 19.6221 202.213 18.3923 202.476L16.6355 202.827C15.4936 203.002 14.2638 202.3 13.9125 201.248L13.3854 199.581C13.0341 198.441 11.8922 197.739 10.6624 198.002L8.64209 198.353" stroke="#91ABE5" stroke-width="1.5" stroke-miterlimit="10"/>
<path d="M439.937 105.192L442.66 104.929C443.889 104.841 444.768 103.876 444.856 102.648L444.943 100.893C445.031 99.6653 445.91 98.7003 447.139 98.6126L448.896 98.4372C450.126 98.3494 451.004 97.3845 451.092 96.1564L451.18 94.4019C451.268 93.1738 452.146 92.2089 453.376 92.1211L455.133 91.9457C456.363 91.858 457.241 90.893 457.329 89.6649L457.417 87.5596" stroke="#91ABE5" stroke-width="1.5" stroke-miterlimit="10"/>
<path d="M522.945 144.053L520.397 144.842C519.255 145.193 518.553 146.334 518.728 147.562L518.992 149.316C519.168 150.456 518.465 151.685 517.323 152.035L515.654 152.562C514.512 152.913 513.809 154.053 513.985 155.281L514.249 157.036C514.424 158.176 513.722 159.404 512.58 159.755L510.911 160.281C509.769 160.632 509.066 161.773 509.242 163.001L509.593 165.106" stroke="#91ABE5" stroke-width="1.5" stroke-miterlimit="10"/>
<path d="M537.526 260.636L539.722 262.128C540.689 262.829 542.006 262.654 542.885 261.777L544.027 260.461C544.817 259.584 546.135 259.408 547.189 260.11L548.682 261.075C549.648 261.777 550.966 261.601 551.844 260.724L552.986 259.408C553.777 258.531 555.094 258.355 556.148 259.057L557.642 260.022C558.608 260.724 559.926 260.549 560.804 259.671L562.209 258.092" stroke="#91ABE5" stroke-width="1.5" stroke-miterlimit="10"/>
<path d="M514.073 177.037L504.85 182.739" stroke="#B2CDED" stroke-width="1.5" stroke-miterlimit="10"/>
<path d="M420.699 57.208L412.179 63.9626" stroke="#B2CDED" stroke-width="1.5" stroke-miterlimit="10"/>
<path d="M231.492 72.9097L220.951 70.3657" stroke="#B2CDED" stroke-width="1.5" stroke-miterlimit="10"/>
<path d="M31.0412 118.877L22.96 111.596" stroke="#B2CDED" stroke-width="1.5" stroke-miterlimit="10"/>
</svg>
